<svg width="280" height="334" class="factory__svg" viewBox="0 0 280 348" fill="none" xmlns="http://www.w3.org/2000/svg">
<g id="Fabryka">
<g id="Komin">
<path id="Vector" d="M150.881 91.8991C150.881 84.5117 150.881 0 150.881 0H107.119C107.119 0 107.119 84.5117 107.119 91.8991C107.119 98.1045 103.832 148.634 80 164H178C154.373 148.634 150.881 98.1045 150.881 91.8991Z" fill="#606060"/>
<path id="Vector_2" d="M150.88 91.8991C150.88 84.5117 150.88 0 150.88 0H120.885C120.885 16.8432 120.885 86.8757 120.885 93.9676C120.885 99.8775 118.214 143.611 100.545 164.295H178C154.373 148.634 150.88 98.1045 150.88 91.8991Z" fill="#333333"/>
<path id="Vector_3" d="M151.086 94.8542H106.914C105.27 94.8542 103.832 96.6272 103.832 98.6957C103.832 100.764 105.27 102.537 106.914 102.537H151.086C152.73 102.537 154.168 100.764 154.168 98.6957C154.168 96.6272 152.935 94.8542 151.086 94.8542Z" fill="#939393"/>
<path id="Vector_4" d="M173.891 146.566H84.3145V161.341H173.891V146.566Z" fill="#606060"/>
</g>
<g id="Kolo zebate">
<g id="Group">
<path id="Vector_5" d="M146 143C146 144.173 146 145.347 146 146.52L165.36 153.56L156.56 171.747C158.32 173.507 159.493 175.267 161.253 176.44L179.44 167.64L186.48 187C187.653 187 188.827 187 190 187C191.173 187 192.347 187 193.52 187L200.56 167.64L218.747 176.44C220.507 174.68 222.267 173.507 223.44 171.747L214.64 153.56L234 146.52C234 145.347 234 144.173 234 143C234 141.827 234 140.653 234 139.48L214.64 132.44L223.44 114.253C221.68 112.493 220.507 110.733 218.747 109.56L200.56 118.36L193.52 99C192.347 99 191.173 99 190 99C188.827 99 187.653 99 186.48 99L180.027 118.36L161.253 109.56C159.493 111.32 158.32 112.493 156.56 114.253L165.36 132.44L146 139.48C146 140.653 146 141.827 146 143ZM190 124.813C199.973 124.813 208.187 133.027 208.187 143C208.187 152.973 199.973 161.187 190 161.187C180.027 161.187 171.813 152.973 171.813 143C171.813 133.027 180.027 124.813 190 124.813Z" fill="#606060"/>
</g>
<g id="Group_2">
<path id="Vector_6" d="M190 161.186C199.973 161.186 208.187 152.973 208.187 143C208.187 133.026 199.973 124.813 190 124.813C180.027 124.813 171.813 133.026 171.813 143C171.813 152.973 180.027 161.186 190 161.186ZM190 136.546C193.52 136.546 197.04 139.48 197.04 143.586C197.04 147.693 194.107 150.04 190 150.04C186.48 150.04 182.96 147.106 182.96 143C182.96 138.893 186.48 136.546 190 136.546Z" fill="#333333"/>
</g>
</g>
<g id="Podkladka" filter="url(#filter0_d)">
<path d="M12 281.5C12 253.61 34.6096 231 62.5 231H214.163C237.013 231 257.016 246.343 262.938 268.412C271.545 300.49 247.376 332 214.163 332H62.5C34.6096 332 12 309.39 12 281.5Z" fill="#333333"/>
</g>
<g id="Youtube">
<rect id="Rectangle 21" x="57.8304" y="153.51" width="134" height="95" rx="27" transform="rotate(-5.39552 57.8304 153.51)" fill="#BC2327"/>
<path id="youtube-triangle" d="M157.26 188.302L116.397 221.392L108.73 168.386L157.26 188.302Z" fill="white"/>
</g>
</g>
<defs>
<filter id="filter0_d" x="0" y="223" width="276.691" height="125" filterUnits="userSpaceOnUse" color-interpolation-filters="sRGB">
<feFlood flood-opacity="0" result="BackgroundImageFix"/>
<feColorMatrix in="SourceAlpha" type="matrix" values="0 0 0 0 0 0 0 0 0 0 0 0 0 0 0 0 0 0 127 0"/>
<feOffset dy="4"/>
<feGaussianBlur stdDeviation="6"/>
<feColorMatrix type="matrix" values="0 0 0 0 0 0 0 0 0 0 0 0 0 0 0 0 0 0 0.32 0"/>
<feBlend mode="normal" in2="BackgroundImageFix" result="effect1_dropShadow"/>
<feBlend mode="normal" in="SourceGraphic" in2="effect1_dropShadow" result="shape"/>
</filter>
</defs>
</svg>
