<svg width="1665" height="688" viewBox="0 0 1665 688" fill="none" xmlns="http://www.w3.org/2000/svg">
<path d="M520.733 223.999H445.33V597.253H520.733V223.999Z" fill="#C3B5B5" fill-opacity="0.58"/>
<path d="M508.415 197.305H457.648V354.22H508.415V197.305Z" fill="#C3B5B5" fill-opacity="0.58"/>
<path d="M497.03 180.359H468.847V267.405H497.03V180.359Z" fill="#C3B5B5" fill-opacity="0.58"/>
<path d="M492.55 224.927H473.326V165.736H480.419H487.138H492.55V224.927Z" fill="#C3B5B5" fill-opacity="0.58"/>
<path d="M481.725 199.162H479.672V139.97H480.418H481.165H481.725V199.162Z" fill="#C3B5B5" fill-opacity="0.58"/>
<path d="M486.391 178.735H484.338V119.311H485.084H485.831H486.391V178.735Z" fill="#C3B5B5" fill-opacity="0.58"/>
<path d="M522.786 223.07H443.277V227.016H522.786V223.07Z" fill="#C3B5B5" fill-opacity="0.58"/>
<path d="M510.281 195.216H455.782V198.93H510.281V195.216Z" fill="#C3B5B5" fill-opacity="0.58"/>
<path d="M498.15 178.735H466.794V181.752H498.15V178.735Z" fill="#C3B5B5" fill-opacity="0.58"/>
<path opacity="0.29" d="M464.741 203.572H462.314V220.053H464.741V203.572Z" fill="#C3B5B5" fill-opacity="0.58"/>
<path opacity="0.29" d="M471.273 203.572H468.847V220.053H471.273V203.572Z" fill="#C3B5B5" fill-opacity="0.58"/>
<path opacity="0.29" d="M477.805 203.572H475.379V220.053H477.805V203.572Z" fill="#C3B5B5" fill-opacity="0.58"/>
<path opacity="0.29" d="M484.338 203.572H481.912V220.053H484.338V203.572Z" fill="#C3B5B5" fill-opacity="0.58"/>
<path opacity="0.29" d="M490.871 203.572H488.444V220.053H490.871V203.572Z" fill="#C3B5B5" fill-opacity="0.58"/>
<path opacity="0.29" d="M497.403 203.572H494.977V220.053H497.403V203.572Z" fill="#C3B5B5" fill-opacity="0.58"/>
<path opacity="0.29" d="M503.935 203.572H501.509V220.053H503.935V203.572Z" fill="#C3B5B5" fill-opacity="0.58"/>
<path d="M457.648 238.854H451.862V258.353H457.648V238.854Z" fill="#C3B5B5" fill-opacity="0.58"/>
<path opacity="0.29" d="M469.033 238.854H463.247V258.353H469.033V238.854Z" fill="#C3B5B5" fill-opacity="0.58"/>
<path d="M480.232 238.854H474.446V258.353H480.232V238.854Z" fill="#C3B5B5" fill-opacity="0.58"/>
<path d="M491.617 238.854H485.831V258.353H491.617V238.854Z" fill="#C3B5B5" fill-opacity="0.58"/>
<path d="M502.816 238.854H497.03V258.353H502.816V238.854Z" fill="#C3B5B5" fill-opacity="0.58"/>
<path d="M514.201 238.854H508.415V258.353H514.201V238.854Z" fill="#C3B5B5" fill-opacity="0.58"/>
<path d="M457.648 269.263H451.862V288.761H457.648V269.263Z" fill="#C3B5B5" fill-opacity="0.58"/>
<path d="M469.033 269.263H463.247V288.761H469.033V269.263Z" fill="#C3B5B5" fill-opacity="0.58"/>
<path d="M480.232 269.263H474.446V288.761H480.232V269.263Z" fill="#C3B5B5" fill-opacity="0.58"/>
<path opacity="0.29" d="M491.617 269.263H485.831V288.761H491.617V269.263Z" fill="#C3B5B5" fill-opacity="0.58"/>
<path d="M502.816 269.263H497.03V288.761H502.816V269.263Z" fill="#C3B5B5" fill-opacity="0.58"/>
<path d="M514.201 269.263H508.415V288.761H514.201V269.263Z" fill="#C3B5B5" fill-opacity="0.58"/>
<path d="M457.648 299.671H451.862V319.169H457.648V299.671Z" fill="#C3B5B5" fill-opacity="0.58"/>
<path d="M469.033 299.67H463.247V319.169H469.033V299.67Z" fill="#C3B5B5" fill-opacity="0.58"/>
<path d="M480.232 299.671H474.446V319.169H480.232V299.671Z" fill="#C3B5B5" fill-opacity="0.58"/>
<path d="M491.617 299.671H485.831V319.169H491.617V299.671Z" fill="#C3B5B5" fill-opacity="0.58"/>
<path opacity="0.29" d="M502.816 299.671H497.03V319.169H502.816V299.671Z" fill="#C3B5B5" fill-opacity="0.58"/>
<path opacity="0.29" d="M514.201 299.671H508.415V319.169H514.201V299.671Z" fill="#C3B5B5" fill-opacity="0.58"/>
<path opacity="0.29" d="M457.648 330.079H451.862V349.577H457.648V330.079Z" fill="#C3B5B5" fill-opacity="0.58"/>
<path d="M469.033 330.079H463.247V349.577H469.033V330.079Z" fill="#C3B5B5" fill-opacity="0.58"/>
<path d="M480.232 330.079H474.446V349.577H480.232V330.079Z" fill="#C3B5B5" fill-opacity="0.58"/>
<path d="M491.617 330.079H485.831V349.578H491.617V330.079Z" fill="#C3B5B5" fill-opacity="0.58"/>
<path d="M502.816 330.079H497.03V349.577H502.816V330.079Z" fill="#C3B5B5" fill-opacity="0.58"/>
<path d="M514.201 330.079H508.415V349.577H514.201V330.079Z" fill="#C3B5B5" fill-opacity="0.58"/>
<path d="M457.648 360.487H451.862V379.985H457.648V360.487Z" fill="#C3B5B5" fill-opacity="0.58"/>
<path opacity="0.29" d="M469.033 360.487H463.247V379.986H469.033V360.487Z" fill="#C3B5B5" fill-opacity="0.58"/>
<path d="M480.232 360.487H474.446V379.986H480.232V360.487Z" fill="#C3B5B5" fill-opacity="0.58"/>
<path opacity="0.29" d="M491.617 360.487H485.831V379.985H491.617V360.487Z" fill="#C3B5B5" fill-opacity="0.58"/>
<path d="M502.816 360.487H497.03V379.985H502.816V360.487Z" fill="#C3B5B5" fill-opacity="0.58"/>
<path d="M514.201 360.487H508.415V379.985H514.201V360.487Z" fill="#C3B5B5" fill-opacity="0.58"/>
<path d="M457.648 390.895H451.862V410.393H457.648V390.895Z" fill="#C3B5B5" fill-opacity="0.58"/>
<path d="M469.033 390.895H463.247V410.393H469.033V390.895Z" fill="#C3B5B5" fill-opacity="0.58"/>
<path d="M480.232 390.895H474.446V410.393H480.232V390.895Z" fill="#C3B5B5" fill-opacity="0.58"/>
<path d="M491.617 390.895H485.831V410.393H491.617V390.895Z" fill="#C3B5B5" fill-opacity="0.58"/>
<path d="M502.816 390.895H497.03V410.393H502.816V390.895Z" fill="#C3B5B5" fill-opacity="0.58"/>
<path opacity="0.29" d="M514.201 390.895H508.415V410.393H514.201V390.895Z" fill="#C3B5B5" fill-opacity="0.58"/>
<path d="M457.648 421.303H451.862V440.802H457.648V421.303Z" fill="#C3B5B5" fill-opacity="0.58"/>
<path opacity="0.29" d="M469.033 421.303H463.247V440.802H469.033V421.303Z" fill="#C3B5B5" fill-opacity="0.58"/>
<path opacity="0.29" d="M480.232 421.303H474.446V440.802H480.232V421.303Z" fill="#C3B5B5" fill-opacity="0.58"/>
<path d="M491.617 421.303H485.831V440.802H491.617V421.303Z" fill="#C3B5B5" fill-opacity="0.58"/>
<path d="M502.816 421.303H497.03V440.802H502.816V421.303Z" fill="#C3B5B5" fill-opacity="0.58"/>
<path d="M514.201 421.303H508.415V440.802H514.201V421.303Z" fill="#C3B5B5" fill-opacity="0.58"/>
<path d="M457.648 451.711H451.862V471.21H457.648V451.711Z" fill="#C3B5B5" fill-opacity="0.58"/>
<path d="M469.033 451.711H463.247V471.209H469.033V451.711Z" fill="#C3B5B5" fill-opacity="0.58"/>
<path d="M480.232 451.711H474.446V471.209H480.232V451.711Z" fill="#C3B5B5" fill-opacity="0.58"/>
<path d="M491.617 451.711H485.831V471.21H491.617V451.711Z" fill="#C3B5B5" fill-opacity="0.58"/>
<path opacity="0.29" d="M502.816 451.711H497.03V471.209H502.816V451.711Z" fill="#C3B5B5" fill-opacity="0.58"/>
<path d="M514.201 451.711H508.415V471.21H514.201V451.711Z" fill="#C3B5B5" fill-opacity="0.58"/>
<path d="M457.648 482.12H451.862V501.618H457.648V482.12Z" fill="#C3B5B5" fill-opacity="0.58"/>
<path opacity="0.29" d="M469.033 482.12H463.247V501.618H469.033V482.12Z" fill="#C3B5B5" fill-opacity="0.58"/>
<path d="M480.232 482.12H474.446V501.618H480.232V482.12Z" fill="#C3B5B5" fill-opacity="0.58"/>
<path d="M491.617 482.12H485.831V501.618H491.617V482.12Z" fill="#C3B5B5" fill-opacity="0.58"/>
<path d="M502.816 482.12H497.03V501.618H502.816V482.12Z" fill="#C3B5B5" fill-opacity="0.58"/>
<path d="M514.201 482.12H508.415V501.618H514.201V482.12Z" fill="#C3B5B5" fill-opacity="0.58"/>
<path d="M457.648 512.527H451.862V532.026H457.648V512.527Z" fill="#C3B5B5" fill-opacity="0.58"/>
<path d="M469.033 512.527H463.247V532.026H469.033V512.527Z" fill="#C3B5B5" fill-opacity="0.58"/>
<path d="M480.232 512.527H474.446V532.026H480.232V512.527Z" fill="#C3B5B5" fill-opacity="0.58"/>
<path opacity="0.29" d="M491.617 512.527H485.831V532.026H491.617V512.527Z" fill="#C3B5B5" fill-opacity="0.58"/>
<path d="M502.816 512.527H497.03V532.026H502.816V512.527Z" fill="#C3B5B5" fill-opacity="0.58"/>
<path opacity="0.29" d="M514.201 512.527H508.415V532.026H514.201V512.527Z" fill="#C3B5B5" fill-opacity="0.58"/>
<path opacity="0.29" d="M457.648 542.936H451.862V562.434H457.648V542.936Z" fill="#C3B5B5" fill-opacity="0.58"/>
<path d="M469.033 542.936H463.247V562.434H469.033V542.936Z" fill="#C3B5B5" fill-opacity="0.58"/>
<path opacity="0.29" d="M480.232 542.936H474.446V562.434H480.232V542.936Z" fill="#C3B5B5" fill-opacity="0.58"/>
<path d="M491.617 542.936H485.831V562.434H491.617V542.936Z" fill="#C3B5B5" fill-opacity="0.58"/>
<path d="M502.816 542.936H497.03V562.434H502.816V542.936Z" fill="#C3B5B5" fill-opacity="0.58"/>
<path d="M514.201 542.936H508.415V562.434H514.201V542.936Z" fill="#C3B5B5" fill-opacity="0.58"/>
<path d="M347.529 238.158H226.397V552.685H347.529V238.158Z" fill="#C3B5B5" fill-opacity="0.58"/>
<path d="M350.888 232.82H222.851V241.64H350.888V232.82Z" fill="#C3B5B5" fill-opacity="0.58"/>
<path d="M343.423 221.445H230.317V263.692H343.423V221.445Z" fill="#C3B5B5" fill-opacity="0.58"/>
<path d="M283.883 204.036H239.089V250.229H283.883V204.036Z" fill="#C3B5B5" fill-opacity="0.58"/>
<path d="M265.033 217.035H239.089V192.895H257.567L265.033 217.035Z" fill="#C3B5B5" fill-opacity="0.58"/>
<path d="M251.968 172.699H249.541V226.784H251.968V172.699Z" fill="#C3B5B5" fill-opacity="0.58"/>
<path d="M253.087 169.914C253.087 171.539 252.154 172.7 250.848 172.7C249.541 172.7 248.608 171.539 248.608 169.914C248.608 168.289 249.541 167.129 250.848 167.129C251.967 167.129 253.087 168.289 253.087 169.914Z" fill="#C3B5B5" fill-opacity="0.58"/>
<path d="M1351.29 576.593H1218.59L1201.98 114.205L1351.29 152.737V576.593Z" fill="#C3B5B5" fill-opacity="0.58"/>
<path d="M772.328 312.437V158.076H751.61V116.526H744.145V55.9416H703.27V11.1419H699.537V55.9416H691.512V0H687.965V55.9416H662.022V158.076H648.584V312.437H637.198V594.002H780.54V312.437H772.328Z" fill="#C3B5B5" fill-opacity="0.58"/>
<path d="M932.467 282.726V205.197H910.07V175.717H897.938V151.112H893.646V108.634H892.526V151.112H888.42V175.717H876.288V205.197H853.891V282.726H849.225V423.392H814.696V583.789H849.225H883.94H936.947V282.726H932.467Z" fill="#5E5959"/>
<path d="M1062 371.629H952.998V374.182H957.851V603.52H1057.14V374.182H1062V371.629Z" fill="#5E5959"/>
<path d="M564.595 428.963H467.914V620H564.595V428.963Z" fill="#5E5959"/>
<path d="M453.169 526.687H286.87V620H453.169V526.687Z" fill="#5E5959"/>
<path d="M412.667 318.473H376.085V547.346H412.667V318.473Z" fill="#5E5959"/>
<path d="M385.977 257.425H384.111V381.843H385.977V257.425Z" fill="#5E5959"/>
<path d="M392.136 266.941H390.27V391.359H392.136V266.941Z" fill="#5E5959"/>
<path d="M401.282 304.313H378.885V334.954H401.282V304.313Z" fill="#5E5959"/>
<path d="M510.468 463.085H446.823V620H510.468V463.085Z" fill="#5E5959"/>
<path d="M156.5 505L92.5 572V620H156.5V505Z" fill="#5E5959"/>
<path d="M699.537 297.118H580.272V620.001H699.537V297.118Z" fill="#5E5959"/>
<path d="M687.965 285.976H592.031V339.828H687.965V285.976Z" fill="#5E5959"/>
<path d="M708.683 303.849H570.94V307.563H708.683V303.849Z" fill="#5E5959"/>
<path d="M614.801 456.818H558.622V620.001H614.801V456.818Z" fill="#5E5959"/>
<path d="M220.612 450.783H156.033V620.001H220.612V450.783Z" fill="#5E5959"/>
<path d="M305.534 404.591H176.938V620.001H305.534V404.591Z" fill="#5E5959"/>
<path d="M308.894 396.466H169.472V404.823H308.894V396.466Z" fill="#5E5959"/>
<path d="M239.089 373.95H182.537V417.589H239.089V373.95Z" fill="#5E5959"/>
<path d="M267.086 373.95H257.567V400.412H267.086V373.95Z" fill="#5E5959"/>
<path d="M286.87 373.95H276.418V400.412H286.87V373.95Z" fill="#5E5959"/>
<path d="M1359.32 547.346H687.779V620H1359.32V547.346Z" fill="#5E5959"/>
<path d="M1304.49 346.589C1299.3 346.589 1295.24 350.53 1294.79 355.861L1283.28 355.397C1283.28 354.238 1283.28 353.079 1283.28 351.921C1283.28 337.318 1280.79 323.179 1276.05 309.735L1285.53 306.026C1287.11 309.503 1290.5 312.053 1294.56 312.053C1299.98 312.053 1304.26 307.649 1304.26 302.086C1304.26 296.523 1299.98 292.119 1294.56 292.119C1289.14 292.119 1284.86 296.523 1284.86 302.086C1284.86 303.013 1285.08 304.172 1285.31 305.099L1275.83 308.808C1270.41 293.742 1262.06 280.066 1251.23 268.013L1258.68 260.828C1260.48 262.45 1262.74 263.609 1265.45 263.609C1270.86 263.609 1275.15 259.205 1275.15 253.642C1275.15 248.079 1270.86 243.675 1265.45 243.675C1260.03 243.675 1255.74 248.079 1255.74 253.642C1255.74 256.192 1256.64 258.278 1258 260.132L1250.55 267.318C1249.87 266.391 1248.97 265.695 1248.29 264.768C1237.01 253.179 1223.92 244.139 1209.48 238.113L1213.54 227.914C1214.44 228.146 1215.57 228.377 1216.47 228.377C1221.89 228.377 1226.18 223.974 1226.18 218.411C1226.18 212.848 1221.89 208.444 1216.47 208.444C1211.06 208.444 1206.77 212.848 1206.77 218.411C1206.77 222.583 1209.25 226.06 1212.64 227.682L1208.57 237.881C1195.71 232.55 1181.94 229.536 1167.72 229.073L1168.18 214.934H1168.4C1173.82 214.934 1178.11 210.53 1178.11 204.967C1178.11 199.404 1173.82 195 1168.4 195C1162.98 195 1158.7 199.404 1158.7 204.967C1158.7 210.066 1162.31 214.238 1167.05 214.934L1166.6 229.073C1165.47 229.073 1164.34 229.073 1163.21 229.073C1149.67 229.073 1136.35 231.391 1123.71 235.795L1119.88 224.437C1123.49 223.046 1125.97 219.338 1125.97 215.166C1125.97 209.603 1121.68 205.199 1116.27 205.199C1110.85 205.199 1106.56 209.603 1106.56 215.166C1106.56 220.728 1110.85 225.132 1116.27 225.132C1117.17 225.132 1118.07 224.901 1118.98 224.669L1122.81 236.026C1107.69 241.589 1093.47 250.397 1081.51 261.987L1074.29 254.106C1075.87 252.252 1076.77 249.934 1076.77 247.384C1076.77 241.821 1072.48 237.417 1067.07 237.417C1061.65 237.417 1057.36 241.821 1057.36 247.384C1057.36 252.947 1061.65 257.351 1067.07 257.351C1069.55 257.351 1071.81 256.424 1073.39 254.801L1080.61 262.682C1079.71 263.377 1079.03 264.305 1078.13 265C1067.97 275.43 1060.07 287.252 1054.2 300L1045.18 295.596C1045.4 294.669 1045.63 293.51 1045.63 292.351C1045.63 286.788 1041.34 282.384 1035.92 282.384C1030.51 282.384 1026.22 286.788 1026.22 292.351C1026.22 297.914 1030.51 302.318 1035.92 302.318C1039.76 302.318 1043.14 300 1044.72 296.523L1053.75 300.695C1047.21 315.298 1043.6 331.06 1043.14 347.517L1031.41 347.053C1031.18 341.722 1026.9 337.318 1021.7 337.318C1016.29 337.318 1012 341.722 1012 347.285C1012 352.848 1016.29 357.252 1021.7 357.252C1026.9 357.252 1030.96 353.311 1031.41 347.98L1043.14 348.444C1043.14 349.603 1043.14 350.762 1043.14 351.921C1043.14 366.523 1045.63 380.662 1050.37 394.106L1040.89 397.815C1039.31 394.338 1035.92 391.788 1031.86 391.788C1026.44 391.788 1022.16 396.192 1022.16 401.755C1022.16 407.318 1026.44 411.722 1031.86 411.722C1037.28 411.722 1041.56 407.318 1041.56 401.755C1041.56 400.828 1041.34 399.669 1041.11 398.742L1050.59 395.033C1056.01 410.099 1064.36 423.775 1075.19 435.828L1067.74 443.013C1065.94 441.391 1063.68 440.232 1060.97 440.232C1055.56 440.232 1051.27 444.636 1051.27 450.199C1051.27 455.762 1055.56 460.166 1060.97 460.166C1066.39 460.166 1070.68 455.762 1070.68 450.199C1070.68 447.649 1069.78 445.563 1068.42 443.709L1075.87 436.523C1076.55 437.45 1077.45 438.146 1078.13 439.073C1085.8 446.954 1094.15 453.444 1103.4 459.007L1044.5 570.497H1033.89V573.742H1028.7V580H1297.49V573.742H1292.3V570.497H1281.7L1223.02 459.238C1230.92 454.603 1238.14 449.04 1244.91 442.55L1254.39 452.98C1252.36 454.834 1251 457.616 1251 460.629C1251 466.192 1255.29 470.596 1260.71 470.596C1266.12 470.596 1270.41 466.192 1270.41 460.629C1270.41 455.066 1266.12 450.662 1260.71 450.662C1258.68 450.662 1256.64 451.358 1255.06 452.517L1245.36 442.086C1246.26 441.391 1246.94 440.464 1247.84 439.768C1258 429.338 1265.9 417.517 1271.77 404.768L1282.37 409.868C1282.15 410.563 1282.15 411.49 1282.15 412.417C1282.15 417.98 1286.44 422.384 1291.85 422.384C1297.27 422.384 1301.56 417.98 1301.56 412.417C1301.56 406.854 1297.27 402.45 1291.85 402.45C1287.56 402.45 1284.18 405.232 1282.82 408.94L1272.44 404.073C1278.99 389.47 1282.6 373.709 1283.05 357.252L1294.56 357.715C1294.79 363.046 1299.07 367.45 1304.26 367.45C1309.68 367.45 1313.97 363.046 1313.97 357.483C1314.42 351.225 1309.91 346.589 1304.49 346.589ZM1280.34 351.921C1280.34 353.079 1280.34 354.238 1280.34 355.166L1246.71 354.007C1246.71 353.311 1246.71 352.616 1246.71 351.689C1246.71 341.49 1244.91 331.755 1241.75 322.715L1273.35 310.662C1277.86 323.874 1280.34 337.781 1280.34 351.921ZM1244.91 354.238L1169.76 351.689C1169.76 351.225 1169.76 350.762 1169.53 350.298L1239.94 323.642C1243.1 332.45 1244.68 342.185 1244.68 352.152C1244.91 352.616 1244.91 353.311 1244.91 354.238ZM1081.51 349.834L1156.67 352.384C1156.67 352.848 1156.67 353.311 1156.89 353.775L1086.48 380.43C1083.32 371.622 1081.74 361.887 1081.74 351.921C1081.51 351.225 1081.51 350.53 1081.51 349.834ZM1168.4 347.748L1223.24 294.901C1230.24 302.781 1236.11 312.053 1239.72 322.252L1169.3 348.907C1169.08 348.675 1168.63 348.212 1168.4 347.748ZM1167.72 347.053C1167.27 346.589 1166.82 346.358 1166.37 346.126L1194.81 274.735C1205.41 279.371 1214.67 286.093 1222.57 294.437L1167.72 347.053ZM1165.24 345.43C1164.79 345.199 1164.34 345.199 1164.11 345.199L1166.6 268.013C1176.3 268.477 1185.33 270.563 1193.9 274.04L1165.24 345.43ZM1162.98 345.199C1162.53 345.199 1162.08 345.199 1161.63 345.43L1136.58 272.649C1144.93 269.636 1153.96 268.013 1163.21 268.013C1163.89 268.013 1164.56 268.013 1165.24 268.013L1162.98 345.199ZM1160.5 345.894C1160.05 346.126 1159.6 346.358 1159.15 346.821L1107.92 290.497C1115.82 282.848 1125.29 277.053 1135.68 273.113L1160.5 345.894ZM1158.47 347.517C1158.25 347.98 1157.79 348.212 1157.57 348.675L1089.41 316.225C1093.7 306.722 1099.79 298.146 1107.01 291.192L1158.47 347.517ZM1157.12 349.603C1156.89 350.066 1156.89 350.53 1156.67 351.225L1081.51 348.675C1081.96 337.55 1084.45 326.887 1088.73 317.384L1157.12 349.603ZM1157.34 354.702C1157.57 355.166 1157.79 355.397 1158.02 355.861L1157.57 356.788L1103.4 408.94C1096.18 401.06 1090.54 391.788 1086.93 381.589L1157.34 354.702ZM1155.76 359.801L1121.68 424.238C1115.14 420.298 1109.05 415.43 1103.85 409.636L1155.76 359.801ZM1159.6 357.483C1159.82 357.715 1160.05 357.715 1160.28 357.947L1131.61 429.338C1128.91 428.179 1126.2 426.788 1123.71 425.397L1159.6 357.483ZM1161.18 358.411C1161.63 358.642 1162.08 358.642 1162.31 358.642L1159.82 435.828C1150.12 435.364 1141.09 433.278 1132.52 429.801L1161.18 358.411ZM1163.21 435.828C1162.53 435.828 1161.86 435.828 1161.18 435.828L1163.66 358.642C1164.11 358.642 1164.56 358.642 1165.02 358.411L1190.07 431.192C1181.49 434.205 1172.46 435.828 1163.21 435.828ZM1165.92 358.179C1166.37 357.947 1166.6 357.715 1167.05 357.483L1202.93 425.397C1199.09 427.483 1195.26 429.338 1190.97 430.96L1165.92 358.179ZM1172.01 362.351L1218.73 413.576C1214.44 417.748 1209.7 421.225 1204.74 424.238L1172.01 362.351ZM1169.98 358.411L1168.63 355.861C1168.85 355.629 1168.85 355.397 1169.08 355.166L1237.24 387.616C1232.95 397.119 1226.85 405.695 1219.63 412.649L1169.98 358.411ZM1169.3 354.238C1169.53 353.775 1169.53 353.311 1169.76 352.616L1244.91 355.166C1244.46 366.291 1241.97 376.954 1237.69 386.457L1169.3 354.238ZM1131.16 430.96L1118.3 462.947C1114.46 461.324 1110.63 459.47 1106.79 457.384L1122.81 427.02C1125.52 428.411 1128.23 429.801 1131.16 430.96ZM1132.07 431.424C1140.64 435.132 1150.12 437.219 1160.05 437.45L1158.92 471.987C1145.16 471.523 1131.84 468.51 1119.2 463.411L1132.07 431.424ZM1161.18 437.45C1161.86 437.45 1162.53 437.45 1163.44 437.45C1172.91 437.45 1182.17 435.828 1190.52 432.815L1201.8 465.497C1189.62 469.901 1176.75 471.987 1163.44 471.987C1162.31 471.987 1161.18 471.987 1160.28 471.987L1161.18 437.45ZM1191.42 432.583C1195.71 430.96 1199.77 429.106 1203.61 427.02L1219.63 457.384C1214.22 460.397 1208.57 463.179 1202.71 465.265L1191.42 432.583ZM1272.89 309.967L1241.3 322.02C1237.46 311.589 1231.59 302.086 1224.37 293.973L1248.97 270.331C1259.58 281.921 1267.7 295.364 1272.89 309.967ZM1246.04 267.086C1246.71 267.781 1247.62 268.709 1248.29 269.404L1223.69 293.046C1215.8 284.47 1206.09 277.517 1195.48 272.881L1208.35 240.894C1222.11 246.921 1234.98 255.728 1246.04 267.086ZM1207.22 240.43L1194.35 272.417C1185.78 268.709 1176.3 266.623 1166.37 266.391L1167.5 231.854C1181.27 232.318 1194.81 235.331 1207.22 240.43ZM1163.21 231.854C1164.34 231.854 1165.47 231.854 1166.37 231.854L1165.24 266.391C1164.56 266.391 1163.89 266.391 1162.98 266.391C1153.51 266.391 1144.25 268.013 1135.9 271.026L1124.62 238.344C1137.03 234.172 1149.89 231.854 1163.21 231.854ZM1123.71 238.808L1135 271.49C1124.39 275.43 1114.69 281.457 1106.56 289.106L1083.54 263.841C1095.5 252.715 1109.05 244.139 1123.71 238.808ZM1080.61 267.086C1081.29 266.391 1082.19 265.464 1082.87 264.768L1105.89 290.033C1098.44 297.219 1092.34 306.026 1087.83 315.762L1057.14 301.159C1062.78 288.642 1070.68 277.053 1080.61 267.086ZM1056.69 302.086L1087.38 316.689C1083.09 326.424 1080.38 337.318 1079.93 348.675L1046.3 347.517C1046.98 331.523 1050.37 316.225 1056.69 302.086ZM1046.3 351.921C1046.3 350.762 1046.3 349.603 1046.3 348.675L1079.93 349.834C1079.93 350.53 1079.93 351.225 1079.93 352.152C1079.93 362.351 1081.74 372.086 1084.9 381.126L1053.3 393.179C1048.56 379.967 1046.3 366.291 1046.3 351.921ZM1053.53 394.106L1085.12 382.053C1088.96 392.483 1094.83 401.987 1102.05 410.099L1077.45 433.742C1066.84 422.152 1058.94 408.709 1053.53 394.106ZM1080.61 436.987C1079.93 436.291 1079.03 435.364 1078.35 434.669L1102.95 411.026C1108.37 416.821 1114.46 421.921 1121.23 425.861L1105.21 456.457C1096.18 450.894 1087.83 444.636 1080.61 436.987ZM1279.44 570.497H1046.98L1105.21 460.166C1109.05 462.252 1112.88 464.338 1116.94 465.96L1112.88 476.159C1111.98 475.927 1110.85 475.695 1109.95 475.695C1104.53 475.695 1100.24 480.099 1100.24 485.662C1100.24 491.225 1104.53 495.629 1109.95 495.629C1115.36 495.629 1119.65 491.225 1119.65 485.662C1119.65 481.49 1117.17 478.013 1113.78 476.391L1117.85 466.192C1130.71 471.523 1144.48 474.536 1158.7 475L1158.47 485.43C1153.28 485.662 1148.99 490.066 1148.99 495.397C1148.99 500.96 1153.28 505.364 1158.7 505.364C1164.11 505.364 1168.4 500.96 1168.4 495.397C1168.4 490.066 1164.56 485.894 1159.6 485.43L1159.82 475C1160.95 475 1162.08 475 1163.21 475C1176.75 475 1190.07 472.682 1202.71 468.278L1206.32 478.477C1202.93 480.099 1200.67 483.576 1200.67 487.517C1200.67 493.079 1204.96 497.483 1210.38 497.483C1215.8 497.483 1220.08 493.079 1220.08 487.517C1220.08 481.954 1215.8 477.55 1210.38 477.55C1209.25 477.55 1208.12 477.781 1207.22 478.013L1203.83 467.815C1209.93 465.497 1215.8 462.947 1221.21 459.702L1279.44 570.497ZM1221.44 456.225L1205.41 425.629C1210.6 422.616 1215.34 418.907 1219.86 414.735L1242.88 440C1236.33 446.258 1229.11 451.821 1221.44 456.225ZM1246.04 436.987C1245.36 437.682 1244.46 438.609 1243.78 439.305L1220.76 414.04C1228.21 406.854 1234.3 398.046 1238.82 388.311L1269.51 402.914C1263.64 415.43 1255.74 426.788 1246.04 436.987ZM1269.73 401.755L1239.04 387.152C1243.33 377.417 1246.04 366.523 1246.49 355.166L1280.12 356.324C1279.66 372.318 1276.05 387.616 1269.73 401.755Z" fill="#5E5959"/>
<path d="M1429.12 431.053H1325.35V620.001H1429.12V431.053Z" fill="#5E5959"/>
<path d="M1517.59 504.403H1413.82V618.84H1517.59V504.403Z" fill="#5E5959"/>
<path d="M1069.84 487.69H1011.6V583.789H1069.84V487.69Z" fill="#5E5959"/>
<path d="M1450.59 251.39H1377.24V620.001H1450.59V251.39Z" fill="#5E5959"/>
<path d="M1575 620H1475V405H1550.87L1575 620Z" fill="#5E5959"/>
<path d="M1518.74 571H1434V620.21H1518.74V571Z" fill="#5E5959"/>
<path d="M1434.16 174.324H1431.55V274.601H1434.16V174.324Z" fill="#5E5959"/>
<path d="M1442.75 195.68H1440.14V295.957H1442.75V195.68Z" fill="#5E5959"/>
<path d="M1426.51 209.607H1423.9V309.884H1426.51V209.607Z" fill="#5E5959"/>
<path d="M1513.11 387.181H1478.4V421.071H1513.11V387.181Z" fill="#5E5959"/>
<path d="M1509.19 375.111H1482.13V394.145H1509.19V375.111Z" fill="#5E5959"/>
<path d="M1533.46 397.162H1526.74V410.857H1533.46V397.162Z" fill="#5E5959"/>
<path d="M1545.22 384.627H1535.7V410.857H1545.22V384.627Z" fill="#5E5959"/>
</svg>
