<svg width="26" height="16" viewBox="0 0 26 16" fill="none" xmlns="http://www.w3.org/2000/svg">
<path d="M20.7994 5.33379C20.8 4.13446 20.4063 2.96996 19.6819 2.0285C18.9575 1.08705 17.9447 0.423653 16.8072 0.145546C15.6697 -0.13256 14.474 -0.00912754 13.4134 0.495894C12.3528 1.00092 11.4892 1.85801 10.9623 2.92866C9.80761 2.5099 8.54565 2.52422 7.40033 2.9691C6.255 3.41397 5.30037 4.26062 4.70585 5.3588C3.90907 5.43548 3.1403 5.69978 2.45943 6.13112C1.77856 6.56245 1.20397 7.14918 0.780422 7.8456C0.356868 8.54202 0.0957861 9.32933 0.0175124 10.1462C-0.0607614 10.9631 0.0458863 11.7874 0.329148 12.5551C0.61241 13.3228 1.06464 14.013 1.65061 14.572C2.23658 15.1311 2.94047 15.5438 3.70745 15.7781C4.47443 16.0124 5.2838 16.0619 6.07251 15.9229C6.86121 15.7838 7.60797 15.4598 8.2546 14.9762C8.99643 15.5313 9.86878 15.8742 10.7823 15.9698C11.6958 16.0653 12.6177 15.9101 13.4535 15.5201C14.206 15.8713 15.0295 16.0327 15.8552 15.9908C16.681 15.949 17.4849 15.705 18.1999 15.2794C18.8903 15.6888 19.6632 15.9297 20.4589 15.9836C21.2546 16.0375 22.0517 15.9028 22.7886 15.5901C23.5254 15.2774 24.1822 14.795 24.7081 14.1802C25.2341 13.5654 25.615 12.8347 25.8215 12.0447C26.028 11.2548 26.0544 10.4266 25.8989 9.62448C25.7433 8.82231 25.4098 8.06763 24.9243 7.41882C24.4388 6.77002 23.8142 6.24451 23.0989 5.88295C22.3836 5.52139 21.5968 5.33349 20.7994 5.33379V5.33379Z" fill="#333333"/>
</svg>
