<svg width="155" height="430" xmlns="http://www.w3.org/2000/svg" viewBox="0 0 111.48 309.48"><defs><style>.cls-1{fill:#ffaf82;}.cls-2{fill:#265d92;}.cls-3{fill:#1a4a75;}.cls-4{fill:#fff;}.cls-5{fill:#050705;}.cls-6{fill:#2c2c2c;}.cls-10,.cls-7{fill:#f88968;}.cls-8{fill:#bc2327;}.cls-9{fill:#dd342c;}.cls-10{opacity:0.5;}.cls-11{fill:#32324c;}</style></defs><g id="Warstwa_2" data-name="Warstwa 2"><g id="OBJECTS"><path class="cls-1" d="M54.76,225.24c-4.12,16-1.1,43.66-1.51,65.17l10.25-3.27,6-61.9Z"/><path class="cls-2" d="M87.82,309.48H55.05a3,3,0,0,1-3-2.63,4.52,4.52,0,0,1,0-.64L53.36,289a18.9,18.9,0,0,1,3.27-1.08,3.33,3.33,0,0,0,2.43-2.21l.06-.25c.76-3.31,5.53-4.36,6.41-1.12.12.41.22.82.3,1.21l.06.29c.14.7.25,1.34.32,1.9v0a19.08,19.08,0,0,1,.17,2.34l1.26,1.63.6.79,1.26,1.63.57.72c.46.57.9,1.1,1.35,1.61.2.23.41.45.61.66,1.69,1.78,3.4,3,5.41,3.27,3.55.49,9.36.88,12.16,6.1a1.36,1.36,0,0,1,.14.33A2,2,0,0,1,87.82,309.48Z"/><path class="cls-3" d="M87.82,309.47H55.05a3,3,0,0,1-3-2.62h37.7A2,2,0,0,1,87.82,309.47Z"/><path class="cls-4" d="M68.24,292.53a5.65,5.65,0,0,1-2.71,1.85c-.27.11-.56.22-.87.32l-.28-.86q.47-.15.84-.3c1.79-.73,2.28-1.44,2.42-1.8Z"/><path class="cls-4" d="M65.53,294.27a1,1,0,1,1-1-1A1,1,0,0,1,65.53,294.27Z"/><path class="cls-4" d="M70.07,294.88a6.59,6.59,0,0,1-2.24,1.41c-.32.13-.66.26-1,.39l-.28-.86.95-.35a5.22,5.22,0,0,0,2-1.31Z"/><path class="cls-4" d="M67.83,296.25a1,1,0,1,1-1-1A1,1,0,0,1,67.83,296.25Z"/><path class="cls-4" d="M72,297.15a6.24,6.24,0,0,1-2.17,1.35c-.32.14-.67.27-1,.4l-.28-.86q.52-.18,1-.36a5.58,5.58,0,0,0,1.93-1.19C71.62,296.72,71.83,296.94,72,297.15Z"/><path class="cls-4" d="M69.86,298.47a1,1,0,1,1-1-1A1,1,0,0,1,69.86,298.47Z"/><path class="cls-4" d="M66.21,287.74a23.85,23.85,0,0,0-2.92.16l0-1.64a7.47,7.47,0,0,1,2.58-.42C66,286.54,66.14,287.18,66.21,287.74Z"/><path class="cls-5" d="M51.38,164.73l-1.13,61s11.52,3.71,23.13.84l2.48-70.42Z"/><path class="cls-1" d="M21.24,213.43c0,4.19,0,8,.1,11l.38,63.46h9l5.77-59.31,2.25-15.16Z"/><path class="cls-6" d="M22.77,158.74s-1.23,22,7.74,25.22,44.61,10.13,45.35-27.86Z"/><path class="cls-6" d="M22.76,164l-5.35,61.59s12.38,4.12,24.74-.61L43.3,186.6Z"/><path class="cls-2" d="M39.08,305.71c-.28,5.59-17.77,3.67-20.57,2a4,4,0,0,1-1.62-3.42,26.5,26.5,0,0,1,1.35-7.92c1.12-3.95,1-3.87,1.74-6.57,0,0-.2-4.38,5.53-6.05s7.84,9.23,8.82,11.33c.89,1.93,4.38,4.56,4.74,9.29A10.08,10.08,0,0,1,39.08,305.71Z"/><path class="cls-4" d="M22.4,293.33l-.46-.7c.21-.14,5.27-3.38,9.68-1.45l-.34.77C27.29,290.2,22.45,293.3,22.4,293.33Z"/><path class="cls-4" d="M22.9,298.2l-.46-.7c.21-.14,5.27-3.38,9.67-1.45l-.33.77C27.79,295.07,23,298.17,22.9,298.2Z"/><path class="cls-4" d="M22.65,295.77l-.46-.7c.21-.14,5.27-3.39,9.68-1.46l-.34.77C27.54,292.63,22.7,295.74,22.65,295.77Z"/><path class="cls-4" d="M23.06,293.11a.95.95,0,1,1-.94-.94A.94.94,0,0,1,23.06,293.11Z"/><path class="cls-4" d="M23.11,295.42a.95.95,0,1,1-.94-.94A.95.95,0,0,1,23.11,295.42Z"/><path class="cls-4" d="M23.61,297.73a.95.95,0,1,1-.94-.94A.94.94,0,0,1,23.61,297.73Z"/><circle class="cls-4" cx="31.95" cy="296.37" r="0.94"/><path class="cls-4" d="M32.64,293.85a.95.95,0,0,1-1.89,0,.95.95,0,1,1,1.89,0Z"/><path class="cls-4" d="M32.39,291.33a.95.95,0,0,1-1.89,0,.95.95,0,1,1,1.89,0Z"/><path class="cls-3" d="M39.08,305.71c-.28,5.59-17.77,3.67-20.57,2a4,4,0,0,1-1.62-3.42,20.59,20.59,0,0,0,9.92,2.45c5.93.1,10.21-1.1,12.26-2.37A10.08,10.08,0,0,1,39.08,305.71Z"/><path class="cls-4" d="M28,285.47a9.42,9.42,0,0,0-4.93,1l.26,1.78a19.23,19.23,0,0,1,5.27-.8A4.13,4.13,0,0,0,28,285.47Z"/><path class="cls-1" d="M96.61,147.35a32.25,32.25,0,0,1,5.38,3c2.33,1.71,5.11,3.85,6.52,4.92,1.71,1.3-.28,2.64-2.74,1s-3-2-3-2,7.62,8.59,8.61,11.52c.91,2.67-3.53-1.86-7.42-5.41,0,0,5.93,9.59,5.09,11.31-1.1,2.26-8.24-9.37-8.24-9.37s4,9.36,2.8,9.68S97,163.23,97,163.23s2.18,6.67,1.32,6.6c-1.71-.13-9.11-13.1-8.07-19.85C90.26,150,95,147,96.61,147.35Z"/><path class="cls-7" d="M103.58,157.93s-3.92,3.7-8.93,3.44C94.65,161.37,99.09,163.85,103.58,157.93Z"/><path class="cls-7" d="M98.21,156.87s-5.25-3.5-2-8C96.18,148.83,90.92,152.77,98.21,156.87Z"/><path class="cls-8" d="M63.4,74.68s4,21.88,9.12,34.63,17.67,43,17.67,43c1.47-2.55,4.12-4.28,8.4-4,0,0-8.43-28.42-12-40.66C85,102.19,79.4,72.08,75.93,67,75.93,67,63.9,72.8,63.4,74.68Z"/><path class="cls-9" d="M40.35,58.73,17.72,69.86l7.74,43.23-4.68,50.38s38.09,8.16,56.9-.5L75.93,67l-18.8-7.39Z"/><path class="cls-1" d="M11.05,153.3a21.46,21.46,0,0,1,3.44,5.28c1.09,2.67,2.11,5.51,2.75,7.18.77,2-1.26,1.92-2.52.42a7.94,7.94,0,0,1-2.07-3.81s2,11.32,1.26,14.33c-.64,2.75-2-3.44-3.46-8.5,0,0,0,11.27-1.63,12.29-2.13,1.34-2.08-12.31-2.08-12.31S5.21,178.24,4,177.89,3,167,3,167s-1.66,6.82-2.36,6.31c-1.38-1-.85-15.94,3.59-21.12C4.26,152.2,9.85,152.16,11.05,153.3Z"/><path class="cls-8" d="M17.72,69.86S6.56,90.89,4.07,104.4s-1.34,50.25-1.34,50.25a14.82,14.82,0,0,0,9.25-.22s1-34.39,3.31-41.59S28.73,87.15,28.73,87.15,31.17,76.06,17.72,69.86Z"/><path class="cls-1" d="M55.05,49.53l-.76,10.2-.35,4.68c-6,4.24-13.09-1.64-13.09-1.64L38,46.47c2.76-1.78,9.53.73,13.73,2C53.69,49,55.05,49.53,55.05,49.53Z"/><path class="cls-7" d="M55.05,49.53l-.76,10.2C47.41,58,41.8,48.33,41.8,48.33l9.92.12C53.69,49,55.05,49.53,55.05,49.53Z"/><path class="cls-1" d="M77.16,22.3c0,.36,0,.74,0,1.12v0c0,1.23-.07,2.51-.15,3.82l0,.37c-.12,2.08-.32,4.24-.54,6.4-.06.46-.11.93-.16,1.4-.17,1.5-.36,3-.56,4.46l-.12.88c-.08.58-.17,1.16-.25,1.74-.18,1.25-.37,2.47-.56,3.65a13.39,13.39,0,0,1-15.7,11A103.87,103.87,0,0,1,38.65,51.5s-.09-.17-.23-.48A58.4,58.4,0,0,1,35,40.82,58,58,0,0,1,33.76,20C36,2.78,72.43,1.23,76.69,15.44l.09.5A43.48,43.48,0,0,1,77.16,22.3Z"/><path class="cls-10" d="M52.41,37.93c0,2.15-2.4,3.9-5.37,3.9s-5.38-1.75-5.38-3.9S44.07,34,47,34,52.41,35.77,52.41,37.93Z"/><path class="cls-10" d="M76.43,34.06c-.06.46-.11.93-.16,1.4-.17,1.5-.36,3-.56,4.46l-.12.88c0,.34-.11.69-.15,1-2.87-.09-5.15-1.81-5.15-3.9S72.7,34,75.67,34A6.34,6.34,0,0,1,76.43,34.06Z"/><path class="cls-11" d="M77.16,22.29c0,.37,0,.75,0,1.12C74.83,21.3,75.42,16,75.42,16a4.09,4.09,0,0,1,1.35,0A42,42,0,0,1,77.16,22.29Z"/><path class="cls-11" d="M38.42,51A58.73,58.73,0,0,1,35,40.82l3.65,1.35S39.77,47.83,38.42,51Z"/><path class="cls-11" d="M56.7,31.89c0,1.49-.64,2.71-1.46,2.72s-1.5-1.2-1.51-2.69.63-2.71,1.45-2.72S56.68,30.39,56.7,31.89Z"/><path class="cls-11" d="M72.14,31.89c0,1.49-.64,2.71-1.46,2.72s-1.5-1.2-1.52-2.69.64-2.71,1.46-2.72S72.12,30.39,72.14,31.89Z"/><path class="cls-1" d="M39.18,29.56s-4.22-5-7.67-2c-3.8,3.27-.73,14.14,7.06,13.8Z"/><path class="cls-7" d="M38.69,39a.68.68,0,0,1-.64-.6C37.34,32.79,34,32,33.93,32a.69.69,0,1,1,.29-1.34c.17,0,4.36,1,5.19,7.52a.69.69,0,0,1-.59.77Z"/><path class="cls-7" d="M34.27,35.51a.65.65,0,0,1-.41-.17.68.68,0,0,1-.07-1,3.9,3.9,0,0,1,3.65-1.1.68.68,0,0,1-.28,1.34,2.57,2.57,0,0,0-2.34.67A.65.65,0,0,1,34.27,35.51Z"/><path class="cls-7" d="M64.82,47.61A13.82,13.82,0,0,1,55.12,43a.78.78,0,0,1,.06-1.11.79.79,0,0,1,1.11.06c5.24,5.88,13.27,3.66,13.36,3.64a.79.79,0,0,1,.43,1.52A17.08,17.08,0,0,1,64.82,47.61Z"/><path class="cls-7" d="M62.54,51.14a8.12,8.12,0,0,1-5.79-2.81.83.83,0,1,1,1.32-1,6.86,6.86,0,0,0,6.66,2,.83.83,0,0,1,1,.67A.84.84,0,0,1,65,51,10.27,10.27,0,0,1,62.54,51.14Z"/><path class="cls-7" d="M63.85,40.13a.82.82,0,0,1-.57-.31.78.78,0,0,1,.14-1.1l2.08-1.63-1.83-.45a.77.77,0,0,1-.58-.63l-.87-5a.79.79,0,0,1,.65-.91.78.78,0,0,1,.91.64l.77,4.5,2.9.71a.79.79,0,0,1,.58.6.8.8,0,0,1-.29.79L64.39,40A.83.83,0,0,1,63.85,40.13Z"/><path class="cls-11" d="M33.33,26.65s-5.62-10-4.44-14.21A6.14,6.14,0,0,1,34.31,8S43-.83,56,.12C66.73.91,77.16-1.46,78.75,1.7c1.47,2.9-4.93,4.92-4.93,4.92s5.33-.39,6.51,1-.06,4.63-5.6,4.28c0,0,4.61.25,5.79,2.62s-4.13,3.25-8.86,2.26-23.75-.89-27.89,2c0,0,.89,5.22-1.67,7.29,0,0,2,6.9.1,8.58S39.07,26.75,33.33,26.65Z"/><path class="cls-11" d="M57.86,24.12v2.57s-4.7-.86-7.9,1.13l-.37-2.14S52.28,23,57.86,24.12Z"/><path class="cls-11" d="M67.09,24.12v2.57s4.7-.86,7.9,1.13l.37-2.14S72.67,23,67.09,24.12Z"/></g></g></svg>