<svg id="zas-b-2" xmlns="http://www.w3.org/2000/svg" xmlns:xlink="http://www.w3.org/1999/xlink" viewBox="0 0 400 500" shape-rendering="geometricPrecision" text-rendering="geometricPrecision"><style><![CDATA[#zas-b-2-objects_to {animation: zas-b-2-objects_to__to 4000ms linear 1 normal forwards}@keyframes zas-b-2-objects_to__to { 0% {transform: translate(55.746685px,154.740130px)} 12.500000% {transform: translate(55.746685px,342.744005px)} 45% {transform: translate(55.746685px,342.744005px)} 52.500000% {transform: translate(44.444674px,342.247511px)} 60% {transform: translate(44.444674px,342.247511px)} 100% {transform: translate(44.444674px,342.247511px)} }#zas-b-2-leftleg_to {animation: zas-b-2-leftleg_to__to 4000ms linear 1 normal forwards}@keyframes zas-b-2-leftleg_to__to { 0% {transform: translate(50.166554px,256.340498px)} 12.500000% {transform: translate(50.166554px,256.340498px)} 20% {transform: translate(44.278159px,269.545827px)} 27.500000% {transform: translate(50.166554px,256.340498px)} 32.500000% {transform: translate(49.371753px,260.999212px)} 37.500000% {transform: translate(40.370340px,262.190567px)} 42.500000% {transform: translate(34.783941px,256.772711px)} 47.500000% {transform: translate(16.367861px,259.848132px)} 52.500000% {transform: translate(22.792621px,260.551941px)} 57.500000% {transform: translate(25.590504px,261.320939px)} 60% {transform: translate(20.858289px,260.842973px)} 65% {transform: translate(18.289937px,260.036041px)} 67.500000% {transform: translate(19.113554px,259.750518px)} 70% {transform: translate(7.193673px,260.031420px)} 72.500000% {transform: translate(5.805938px,256.064142px)} 75% {transform: translate(18.498217px,248.830828px)} 80% {transform: translate(2.550301px,239.923219px)} 82.500000% {transform: translate(-10.149511px,254.545435px)} 87.500000% {transform: translate(-46.696439px,261.912109px)} 100% {transform: translate(-46.696439px,261.912109px)} }#zas-b-2-leftleg_tr {animation: zas-b-2-leftleg_tr__tr 4000ms linear 1 normal forwards}@keyframes zas-b-2-leftleg_tr__tr { 0% {transform: rotate(-3.375226deg)} 12.500000% {transform: rotate(-3.375226deg)} 20% {transform: rotate(-26.821157deg)} 27.500000% {transform: rotate(-3.375226deg)} 32.500000% {transform: rotate(-0.841245deg)} 37.500000% {transform: rotate(-11.224350deg)} 42.500000% {transform: rotate(-21.385469deg)} 47.500000% {transform: rotate(19.781574deg)} 52.500000% {transform: rotate(4.531328deg)} 57.500000% {transform: rotate(0.863966deg)} 65% {transform: rotate(-13.180750deg)} 67.500000% {transform: rotate(-10.007239deg)} 70% {transform: rotate(-16.955385deg)} 72.500000% {transform: rotate(-18.509978deg)} 75% {transform: rotate(-32.006505deg)} 80% {transform: rotate(-67.103355deg)} 82.500000% {transform: rotate(-33.829897deg)} 87.500000% {transform: rotate(-3.487435deg)} 100% {transform: rotate(-3.487435deg)} }#zas-b-2-leftleg_ts {animation: zas-b-2-leftleg_ts__ts 4000ms linear 1 normal forwards}@keyframes zas-b-2-leftleg_ts__ts { 0% {transform: scale(1,1)} 12.500000% {transform: scale(1,1)} 20% {transform: scale(0.821373,0.821373)} 27.500000% {transform: scale(1,1)} 65% {transform: scale(1,1.068207)} 100% {transform: scale(1,1.068207)} }#zas-b-2-leftshoe_to {animation: zas-b-2-leftshoe_to__to 4000ms linear 1 normal forwards}@keyframes zas-b-2-leftshoe_to__to { 0% {transform: translate(50.317386px,292.927496px)} 12.500000% {transform: translate(50.317386px,292.927496px)} 17.500000% {transform: translate(50.317386px,297.412911px)} 22.500000% {transform: translate(50.317386px,292.927496px)} 27.500000% {transform: translate(49.117889px,293.718145px)} 32.500000% {transform: translate(45.886790px,297.617503px)} 37.500000% {transform: translate(42.087013px,294.262054px)} 42.500000% {transform: translate(43.982606px,290.641607px)} 47.500000% {transform: translate(0.944046px,294.772200px)} 52.500000% {transform: translate(17.709699px,297.946371px)} 60% {transform: translate(22.163302px,297.590267px)} 65% {transform: translate(23.075993px,297.440016px)} 67.500000% {transform: translate(23.102164px,297.874158px)} 70% {transform: translate(14.964921px,296.245879px)} 72.500000% {transform: translate(14.789964px,292.113028px)} 75% {transform: translate(35.109658px,282.302995px)} 80% {transform: translate(32.391838px,256.602233px)} 82.500000% {transform: translate(7.745185px,283.764415px)} 87.500000% {transform: translate(-48.788106px,297.512184px)} 100% {transform: translate(-48.788106px,297.512184px)} }#zas-b-2-leftshoe_tr {animation: zas-b-2-leftshoe_tr__tr 4000ms linear 1 normal forwards}@keyframes zas-b-2-leftshoe_tr__tr { 0% {transform: rotate(-11.648316deg)} 12.500000% {transform: rotate(-11.648316deg)} 17.500000% {transform: rotate(-1.331846deg)} 22.500000% {transform: rotate(-11.648316deg)} 27.500000% {transform: rotate(-0.331481deg)} 32.500000% {transform: rotate(-0.331481deg)} 37.500000% {transform: rotate(-6.803533deg)} 42.500000% {transform: rotate(-19.832265deg)} 47.500000% {transform: rotate(16.816238deg)} 52.500000% {transform: rotate(-0.231825deg)} 60% {transform: rotate(-0.020187deg)} 65% {transform: rotate(-0.162489deg)} 67.500000% {transform: rotate(-0.991468deg)} 70% {transform: rotate(-4.333657deg)} 72.500000% {transform: rotate(-16.552336deg)} 75% {transform: rotate(-33.756702deg)} 80% {transform: rotate(-67.050248deg)} 82.500000% {transform: rotate(-49.475352deg)} 87.500000% {transform: rotate(0.309254deg)} 100% {transform: rotate(0.309254deg)} }#zas-b-2-lefttight_to {animation: zas-b-2-lefttight_to__to 4000ms linear 1 normal forwards}@keyframes zas-b-2-lefttight_to__to { 0% {transform: translate(46.173126px,178.478251px)} 12.500000% {transform: translate(46.173126px,178.478251px)} 20% {transform: translate(47.334714px,210.244337px)} 27.500000% {transform: translate(46.173126px,178.478251px)} 32.500000% {transform: translate(46.173126px,178.478251px)} 37.500000% {transform: translate(41.900023px,180.104264px)} 42.500000% {transform: translate(40.328227px,180.810039px)} 52.500000% {transform: translate(40.328227px,180.810039px)} 57.500000% {transform: translate(29.286699px,182.487938px)} 67.500000% {transform: translate(13.087558px,176.758760px)} 70% {transform: translate(-7.751006px,174.713820px)} 72.500000% {transform: translate(-25.552971px,174.866298px)} 75% {transform: translate(-24.272607px,175.183385px)} 77.500000% {transform: translate(-31.733728px,182.473815px)} 80% {transform: translate(-44.726011px,179.726299px)} 87.500000% {transform: translate(-48.856593px,179.811073px)} 100% {transform: translate(-48.856593px,179.811073px)} }#zas-b-2-lefttight_tr {animation: zas-b-2-lefttight_tr__tr 4000ms linear 1 normal forwards}@keyframes zas-b-2-lefttight_tr__tr { 0% {transform: rotate(-0.198165deg)} 12.500000% {transform: rotate(-0.198165deg)} 20% {transform: rotate(26.824548deg)} 27.500000% {transform: rotate(-0.198165deg)} 32.500000% {transform: rotate(-0.198165deg)} 37.500000% {transform: rotate(11.702903deg)} 42.500000% {transform: rotate(20.887014deg)} 52.500000% {transform: rotate(20.887014deg)} 57.500000% {transform: rotate(6.970736deg)} 65% {transform: rotate(8.945314deg)} 67.500000% {transform: rotate(3.911059deg)} 70% {transform: rotate(-4.301201deg)} 72.500000% {transform: rotate(-23.739992deg)} 80% {transform: rotate(-20.256723deg)} 87.500000% {transform: rotate(0.222331deg)} 100% {transform: rotate(0.222331deg)} }#zas-b-2-lefttight_ts {animation: zas-b-2-lefttight_ts__ts 4000ms linear 1 normal forwards}@keyframes zas-b-2-lefttight_ts__ts { 0% {transform: scale(1,1)} 12.500000% {transform: scale(1,1)} 20% {transform: scale(0.815431,0.815431)} 27.500000% {transform: scale(1,1)} 75% {transform: scale(1.206733,1)} 80% {transform: scale(0.966822,0.973312)} 100% {transform: scale(0.966822,0.973312)} }#zas-b-2-rightleg_to {animation: zas-b-2-rightleg_to__to 4000ms linear 1 normal forwards}@keyframes zas-b-2-rightleg_to__to { 0% {offset-distance: 0%} 12.500000% {offset-distance: 0%} 20% {offset-distance: 6.666667%} 27.500000% {offset-distance: 13.333333%} 32.500000% {offset-distance: 20%} 37.500000% {offset-distance: 26.666667%} 42.500000% {offset-distance: 33.333333%} 47.500000% {offset-distance: 40%} 52.500000% {offset-distance: 46.666667%} 57.500000% {offset-distance: 53.333333%} 62.500000% {offset-distance: 60%} 65% {offset-distance: 66.666667%} 67.500000% {offset-distance: 73.333333%} 70% {offset-distance: 80%} 72.500000% {offset-distance: 86.666667%} 80% {offset-distance: 93.333333%} 82.500000% {offset-distance: 100%} 100% {offset-distance: 100%} }#zas-b-2-rightleg_tr {animation: zas-b-2-rightleg_tr__tr 4000ms linear 1 normal forwards}@keyframes zas-b-2-rightleg_tr__tr { 0% {transform: rotate(-15.177836deg)} 12.500000% {transform: rotate(-15.177836deg)} 20% {transform: rotate(-29.831826deg)} 27.500000% {transform: rotate(-15.177836deg)} 32.500000% {transform: rotate(-1.179247deg)} 37.500000% {transform: rotate(-8.253122deg)} 42.500000% {transform: rotate(-8.253122deg)} 47.500000% {transform: rotate(-20.918868deg)} 52.500000% {transform: rotate(-30.602299deg)} 57.500000% {transform: rotate(-30.602299deg)} 62.500000% {transform: rotate(-43.737142deg)} 67.500000% {transform: rotate(21.073661deg)} 70% {transform: rotate(36.371608deg)} 72.500000% {transform: rotate(14.793336deg)} 75% {transform: rotate(13.923873deg)} 80% {transform: rotate(10.065250deg)} 87.500000% {transform: rotate(-0.786455deg)} 100% {transform: rotate(-0.786455deg)} }#zas-b-2-rightleg_ts {animation: zas-b-2-rightleg_ts__ts 4000ms linear 1 normal forwards}@keyframes zas-b-2-rightleg_ts__ts { 0% {transform: scale(0.925843,0.994765)} 12.500000% {transform: scale(0.925843,0.994765)} 20% {transform: scale(0.803483,0.863296)} 27.500000% {transform: scale(0.925843,0.994765)} 67.500000% {transform: scale(0.925843,1.182625)} 72.500000% {transform: scale(1.138778,1.215526)} 75% {transform: scale(1.221340,1.216492)} 80% {transform: scale(1.005025,1.255983)} 100% {transform: scale(1.005025,1.255983)} }#zas-b-2-rightshoe_to {animation: zas-b-2-rightshoe_to__to 4000ms linear 1 normal forwards}@keyframes zas-b-2-rightshoe_to__to { 0% {transform: translate(99.035131px,288.794832px)} 12.500000% {transform: translate(99.035131px,288.794832px)} 17.500000% {transform: translate(96.513496px,297.337332px)} 22.500000% {transform: translate(99.035131px,288.794832px)} 27.500000% {transform: translate(99.404612px,295.070615px)} 32.500000% {transform: translate(76.662276px,297.015732px)} 42.500000% {transform: translate(76.662276px,297.015732px)} 47.500000% {transform: translate(88.066059px,291.447229px)} 52.500000% {transform: translate(100.207384px,290.124880px)} 57.500000% {transform: translate(104.084070px,288.078393px)} 62.500000% {transform: translate(78.696425px,277.544128px)} 65% {transform: translate(36.973997px,293.942518px)} 67.500000% {transform: translate(-12.696593px,290.399430px)} 70% {transform: translate(-64.756597px,281.726227px)} 72.500000% {transform: translate(-55.266021px,295.823549px)} 75% {transform: translate(-53.905530px,297.693611px)} 80% {transform: translate(-52.192181px,296.957232px)} 82.500000% {transform: translate(-37.078905px,296.957232px)} 87.500000% {transform: translate(-21.353672px,297.487448px)} 100% {transform: translate(-21.353672px,297.487448px)} }#zas-b-2-rightshoe_tr {animation: zas-b-2-rightshoe_tr__tr 4000ms linear 1 normal forwards}@keyframes zas-b-2-rightshoe_tr__tr { 0% {transform: rotate(-30.250553deg)} 12.500000% {transform: rotate(-30.250553deg)} 17.500000% {transform: rotate(-0.250553deg)} 22.500000% {transform: rotate(-30.250553deg)} 27.500000% {transform: rotate(-6.517413deg)} 32.500000% {transform: rotate(-0.385913deg)} 42.500000% {transform: rotate(-0.385913deg)} 47.500000% {transform: rotate(-20.494441deg)} 52.500000% {transform: rotate(-28.848677deg)} 57.500000% {transform: rotate(-38.400489deg)} 62.500000% {transform: rotate(-47.191929deg)} 67.500000% {transform: rotate(28.712810deg)} 70% {transform: rotate(23.577719deg)} 72.500000% {transform: rotate(5.725404deg)} 75% {transform: rotate(0.999649deg)} 87.500000% {transform: rotate(0.269867deg)} 100% {transform: rotate(0.269867deg)} }#zas-b-2-pants_to {animation: zas-b-2-pants_to__to 4000ms linear 1 normal forwards}@keyframes zas-b-2-pants_to__to { 0% {transform: translate(62.193487px,171.357529px)} 12.500000% {transform: translate(62.193487px,171.357529px)} 20% {transform: translate(63.659244px,201.611983px)} 27.500000% {transform: translate(62.193487px,171.357529px)} 32.500000% {transform: translate(62.695988px,174.730824px)} 52.500000% {transform: translate(62.695988px,174.730824px)} 57.500000% {transform: translate(46.787341px,176.218932px)} 67.500000% {transform: translate(29.082421px,170.543317px)} 70% {transform: translate(5.749519px,169.590544px)} 72.500000% {transform: translate(-16.454173px,175.182864px)} 80% {transform: translate(-34.001654px,175.182864px)} 100% {transform: translate(-34.001654px,175.182864px)} }#zas-b-2-pants_ts {animation: zas-b-2-pants_ts__ts 4000ms linear 1 normal forwards}@keyframes zas-b-2-pants_ts__ts { 0% {transform: scale(1,1)} 12.500000% {transform: scale(1,1)} 20% {transform: scale(0.914793,0.802661)} 27.500000% {transform: scale(1,1)} 100% {transform: scale(1,1)} }#zas-b-2-righttight_to {animation: zas-b-2-righttight_to__to 4000ms linear 1 normal forwards}@keyframes zas-b-2-righttight_to__to { 0% {transform: translate(82.823555px,171.170422px)} 12.500000% {transform: translate(82.823555px,171.170422px)} 20% {transform: translate(80.191542px,197.729678px)} 27.500000% {transform: translate(82.823555px,171.170422px)} 32.500000% {transform: translate(81.612264px,176.803650px)} 37.500000% {transform: translate(79.590744px,178.430996px)} 52.500000% {transform: translate(79.590744px,178.430996px)} 57.500000% {transform: translate(68.615989px,176.061173px)} 67.500000% {transform: translate(47.884640px,170.241276px)} 70% {transform: translate(21.957509px,172.243779px)} 72.500000% {transform: translate(-1.245128px,180.528546px)} 80% {transform: translate(-14.380638px,173.569555px)} 82.500000% {transform: translate(-12.543038px,176.486643px)} 100% {transform: translate(-12.543038px,176.486643px)} }#zas-b-2-righttight_tr {animation: zas-b-2-righttight_tr__tr 4000ms linear 1 normal forwards}@keyframes zas-b-2-righttight_tr__tr { 0% {transform: rotate(-3.855018deg)} 12.500000% {transform: rotate(-3.855018deg)} 20% {transform: rotate(11.356499deg)} 27.500000% {transform: rotate(-3.855018deg)} 32.500000% {transform: rotate(-0.898824deg)} 37.500000% {transform: rotate(7.322578deg)} 52.500000% {transform: rotate(7.322578deg)} 57.500000% {transform: rotate(-9.157284deg)} 62.500000% {transform: rotate(37.662665deg)} 67.500000% {transform: rotate(27.738687deg)} 70% {transform: rotate(36.783412deg)} 72.500000% {transform: rotate(35.870524deg)} 80% {transform: rotate(20.483048deg)} 82.500000% {transform: rotate(5deg)} 100% {transform: rotate(5deg)} }#zas-b-2-righttight_ts {animation: zas-b-2-righttight_ts__ts 4000ms linear 1 normal forwards}@keyframes zas-b-2-righttight_ts__ts { 0% {transform: scale(1,1)} 12.500000% {transform: scale(1,1)} 20% {transform: scale(0.876171,0.876171)} 27.500000% {transform: scale(1,1)} 100% {transform: scale(1,1)} }#zas-b-2-lefthand_to {animation: zas-b-2-lefthand_to__to 4000ms linear 1 normal forwards}@keyframes zas-b-2-lefthand_to__to { 0% {transform: translate(-16.572305px,148.037164px)} 12.500000% {transform: translate(-16.572305px,148.037164px)} 20% {transform: translate(19.179204px,200.879557px)} 27.500000% {transform: translate(-16.572305px,148.037164px)} 32.500000% {transform: translate(13.572737px,161.181579px)} 52.500000% {transform: translate(13.572737px,161.181579px)} 57.500000% {transform: translate(0.339929px,162.615144px)} 67.500000% {transform: translate(-17.364991px,156.939530px)} 70% {transform: translate(-40.697893px,155.986757px)} 72.500000% {transform: translate(-62.901585px,161.579076px)} 80% {transform: translate(-80.449066px,161.579076px)} 100% {transform: translate(-80.449066px,161.579076px)} }#zas-b-2-lefthand_tr {animation: zas-b-2-lefthand_tr__tr 4000ms linear 1 normal forwards}@keyframes zas-b-2-lefthand_tr__tr { 0% {transform: rotate(14.579949deg)} 12.500000% {transform: rotate(14.579949deg)} 20% {transform: rotate(-5.169165deg)} 27.500000% {transform: rotate(14.579949deg)} 32.500000% {transform: rotate(-0.631813deg)} 100% {transform: rotate(-0.631813deg)} }#zas-b-2-leftarm_to {animation: zas-b-2-leftarm_to__to 4000ms linear 1 normal forwards}@keyframes zas-b-2-leftarm_to__to { 0% {transform: translate(31.184949px,82.002120px)} 12.500000% {transform: translate(31.184949px,82.002120px)} 20% {transform: translate(41.648391px,123.501845px)} 27.500000% {transform: translate(31.184949px,82.002120px)} 32.500000% {transform: translate(35.972987px,82.984458px)} 52.500000% {transform: translate(35.972987px,82.984458px)} 57.500000% {transform: translate(22.295319px,84.885585px)} 67.500000% {transform: translate(4.590399px,79.209970px)} 70% {transform: translate(-18.742504px,78.257197px)} 72.500000% {transform: translate(-40.946195px,83.849516px)} 80% {transform: translate(-58.493676px,83.849516px)} 100% {transform: translate(-58.493676px,83.849516px)} }#zas-b-2-leftarm_tr {animation: zas-b-2-leftarm_tr__tr 4000ms linear 1 normal forwards}@keyframes zas-b-2-leftarm_tr__tr { 0% {transform: rotate(18.410567deg)} 12.500000% {transform: rotate(18.410567deg)} 20% {transform: rotate(-0.450405deg)} 27.500000% {transform: rotate(18.410567deg)} 32.500000% {transform: rotate(-1.962160deg)} 52.500000% {transform: rotate(-1.962160deg)} 100% {transform: rotate(-1.962160deg)} }#zas-b-2-torso_to {animation: zas-b-2-torso_to__to 4000ms linear 1 normal forwards}@keyframes zas-b-2-torso_to__to { 0% {transform: translate(63.775002px,112.841473px)} 12.500000% {transform: translate(63.775002px,112.841473px)} 20% {transform: translate(65.393065px,148.275104px)} 27.500000% {transform: translate(63.775002px,112.841473px)} 52.500000% {transform: translate(63.775002px,112.841473px)} 57.500000% {transform: translate(50.198855px,114.127601px)} 67.500000% {transform: translate(32.493935px,108.451986px)} 70% {transform: translate(9.161033px,107.499213px)} 72.500000% {transform: translate(-13.042659px,113.091533px)} 80% {transform: translate(-30.590139px,113.091533px)} 100% {transform: translate(-30.590139px,113.091533px)} }#zas-b-2-torso_ts {animation: zas-b-2-torso_ts__ts 4000ms linear 1 normal forwards}@keyframes zas-b-2-torso_ts__ts { 0% {transform: scale(1,1)} 12.500000% {transform: scale(1,1)} 20% {transform: scale(0.870184,0.870184)} 27.500000% {transform: scale(1,1)} 100% {transform: scale(1,1)} }#zas-b-2-righthand_to {animation: zas-b-2-righthand_to__to 4000ms linear 1 normal forwards}@keyframes zas-b-2-righthand_to__to { 0% {transform: translate(143.564299px,146.055246px)} 12.500000% {transform: translate(143.564299px,146.055246px)} 20% {transform: translate(91.509445px,207.636706px)} 27.500000% {transform: translate(143.564299px,146.055246px)} 32.500000% {transform: translate(104.467851px,165.515352px)} 37.500000% {transform: translate(104.467851px,165.515352px)} 42.500000% {transform: translate(98.610504px,166.907027px)} 52.500000% {transform: translate(98.610504px,166.907027px)} 57.500000% {transform: translate(75.140029px,168.821992px)} 67.500000% {transform: translate(57.435109px,163.146378px)} 70% {transform: translate(34.102207px,162.193605px)} 72.500000% {transform: translate(11.898515px,167.785924px)} 80% {transform: translate(-5.648966px,167.785924px)} 100% {transform: translate(-5.648966px,167.785924px)} }#zas-b-2-righthand_tr {animation: zas-b-2-righthand_tr__tr 4000ms linear 1 normal forwards}@keyframes zas-b-2-righthand_tr__tr { 0% {transform: rotate(-22.294295deg)} 12.500000% {transform: rotate(-22.294295deg)} 20% {transform: rotate(15.982244deg)} 27.500000% {transform: rotate(-22.294295deg)} 32.500000% {transform: rotate(0.355577deg)} 37.500000% {transform: rotate(0.355577deg)} 42.500000% {transform: rotate(9.406837deg)} 100% {transform: rotate(9.406837deg)} }#zas-b-2-rightarm_to {animation: zas-b-2-rightarm_to__to 4000ms linear 1 normal forwards}@keyframes zas-b-2-rightarm_to__to { 0% {transform: translate(91.337080px,77.182415px)} 12.500000% {transform: translate(91.337080px,77.182415px)} 20% {transform: translate(89.007181px,119.386796px)} 27.500000% {transform: translate(91.337080px,77.182415px)} 32.500000% {transform: translate(90.358399px,79.092535px)} 37.500000% {transform: translate(90.358399px,79.092535px)} 52.500000% {transform: translate(90.358399px,79.092535px)} 57.500000% {transform: translate(75.929035px,79.914501px)} 67.500000% {transform: translate(58.224115px,74.238886px)} 70% {transform: translate(34.891213px,73.286113px)} 72.500000% {transform: translate(12.687521px,78.878433px)} 80% {transform: translate(-4.859959px,78.878433px)} 100% {transform: translate(-4.859959px,78.878433px)} }#zas-b-2-rightarm_tr {animation: zas-b-2-rightarm_tr__tr 4000ms linear 1 normal forwards}@keyframes zas-b-2-rightarm_tr__tr { 0% {transform: rotate(-30deg)} 12.500000% {transform: rotate(-30deg)} 20% {transform: rotate(4.762356deg)} 27.500000% {transform: rotate(-30deg)} 32.500000% {transform: rotate(-1.426028deg)} 37.500000% {transform: rotate(-1.426028deg)} 42.500000% {transform: rotate(2.101773deg)} 52.500000% {transform: rotate(2.101773deg)} 57.500000% {transform: rotate(7.878340deg)} 100% {transform: rotate(7.878340deg)} }#zas-b-2-head_to {animation: zas-b-2-head_to__to 4000ms linear 1 normal forwards}@keyframes zas-b-2-head_to__to { 0% {transform: translate(60.783361px,58.730000px)} 12.500000% {transform: translate(60.783361px,58.730000px)} 20% {transform: translate(63.209490px,99.773105px)} 27.500000% {transform: translate(60.783361px,58.730000px)} 52.500000% {transform: translate(60.783361px,58.730000px)} 57.500000% {transform: translate(49.123265px,58.730000px)} 67.500000% {transform: translate(31.418345px,53.054385px)} 70% {transform: translate(8.085443px,52.101612px)} 72.500000% {transform: translate(-14.118249px,57.693932px)} 80% {transform: translate(-31.665730px,57.693932px)} 100% {transform: translate(-31.665730px,57.693932px)} }#zas-b-2-head_tr {animation: zas-b-2-head_tr__tr 4000ms linear 1 normal forwards}@keyframes zas-b-2-head_tr__tr { 0% {transform: rotate(0deg)} 12.500000% {transform: rotate(0deg)} 20% {transform: rotate(0deg)} 27.500000% {transform: rotate(-6.976823deg)} 32.500000% {transform: rotate(0.809237deg)} 100% {transform: rotate(0.809237deg)} }]]></style><g id="zas-b-2-warstwa-2" transform="matrix(1 0 0 1 175.60292399999994 -0.00012423999988)"><g id="zas-b-2-objects_to" transform="translate(55.746685,154.740130)"><g id="zas-b-2-objects" transform="translate(-55.746685,-154.740130)"><g id="zas-b-2-leftleg_to" transform="translate(50.166554,256.340498)"><g id="zas-b-2-leftleg_tr" transform="rotate(-3.375226)"><g id="zas-b-2-leftleg_ts" transform="scale(1,1)"><path id="zas-b-2-leftleg" d="M56.720000,225.240000C60.840000,241.240000,57.820000,268.900000,58.240000,290.410000L48,287.140000L42,225.240000Z" transform="translate(-48.944819,-257.841031)" fill="rgb(255,175,130)" stroke="none" stroke-width="1"/></g></g></g><g id="zas-b-2-leftshoe_to" transform="translate(50.317386,292.927496)"><g id="zas-b-2-leftshoe_tr" transform="rotate(-11.648316)"><g id="zas-b-2-leftshoe" transform="translate(-46.001222,-295.032175)"><path id="zas-b-2-path1" d="M23.670000,309.480000L56.430000,309.480000C57.952497,309.491619,59.242264,308.360923,59.430000,306.850000C59.455093,306.637405,59.455093,306.422595,59.430000,306.210000L58.130000,289C57.071287,288.542311,55.973524,288.180853,54.850000,287.920000C53.707755,287.661855,52.785061,286.822697,52.420000,285.710000L52.360000,285.460000C51.610000,282.150000,46.830000,281.100000,45.950000,284.340000C45.830000,284.750000,45.730000,285.160000,45.650000,285.550000L45.590000,285.840000C45.450000,286.540000,45.350000,287.180000,45.270000,287.740000L45.270000,287.740000C45.164842,288.515590,45.111391,289.297315,45.110000,290.080000C44.670000,290.630000,44.250000,291.180000,43.850000,291.710000C43.640000,291.970000,43.440000,292.240000,43.240000,292.500000L42,294.160000L41.430000,294.880000C40.980000,295.450000,40.530000,295.980000,40.080000,296.490000C39.880000,296.720000,39.680000,296.940000,39.470000,297.150000C37.780000,298.930000,36.080000,300.150000,34.060000,300.420000C30.510000,300.910000,24.700000,301.300000,21.900000,306.520000C21.843144,306.625393,21.796273,306.735875,21.760000,306.850000C21.556964,307.461708,21.661165,308.133774,22.039902,308.655281C22.418638,309.176787,23.025488,309.483812,23.670000,309.480000Z" transform="matrix(1 0 0 1 1.06167630821974 0.56259549951443)" fill="rgb(38,93,146)" stroke="none" stroke-width="1"/><path id="zas-b-2-path2" d="M23.670000,309.470000L56.430000,309.470000C57.949131,309.482230,59.237620,308.356950,59.430000,306.850000L21.740000,306.850000C21.539781,307.463827,21.648206,308.136554,22.031140,308.656393C22.414075,309.176231,23.024411,309.479231,23.670000,309.470000Z" transform="matrix(1 0 0 1 0.42273309376262 0.00014893907024)" fill="rgb(26,74,117)" stroke="none" stroke-width="1"/><path id="zas-b-2-path3" d="M43.240000,292.530000C43.953781,293.409360,44.915371,294.053904,46,294.380000C46.270000,294.490000,46.560000,294.600000,46.870000,294.700000L47.150000,293.840000Q46.680000,293.690000,46.310000,293.540000C44.520000,292.810000,44.030000,292.100000,43.900000,291.740000C43.640000,292,43.440000,292.270000,43.240000,292.530000Z" fill="rgb(255,255,255)" stroke="none" stroke-width="1"/><path id="zas-b-2-path4" d="M46,294.270000C46,294.822285,46.447715,295.270000,47,295.270000C47.552285,295.270000,48,294.822285,48,294.270000C48,293.717715,47.552285,293.270000,47,293.270000C46.447715,293.270000,46,293.717715,46,294.270000Z" fill="rgb(255,255,255)" stroke="none" stroke-width="1"/><path id="zas-b-2-path5" d="M41.410000,294.880000C42.055478,295.494276,42.817002,295.973628,43.650000,296.290000C43.970000,296.420000,44.310000,296.550000,44.650000,296.680000L44.940000,295.820000C44.580000,295.700000,44.260000,295.580000,43.940000,295.470000C43.180965,295.193941,42.496342,294.745514,41.940000,294.160000Z" fill="rgb(255,255,255)" stroke="none" stroke-width="1"/><path id="zas-b-2-path6" d="M43.650000,296.250000C43.650000,296.802285,44.097715,297.250000,44.650000,297.250000C45.202285,297.250000,45.650000,296.802285,45.650000,296.250000C45.650000,295.697715,45.202285,295.250000,44.650000,295.250000C44.097715,295.250000,43.650000,295.697715,43.650000,296.250000Z" fill="rgb(255,255,255)" stroke="none" stroke-width="1"/><path id="zas-b-2-path7" d="M39.450000,297.150000C40.072449,297.744892,40.811275,298.204530,41.620000,298.500000C41.940000,298.640000,42.290000,298.770000,42.680000,298.900000L43,298C42.640000,297.880000,42.320000,297.760000,42,297.640000C41.283348,297.376827,40.626986,296.972127,40.070000,296.450000C39.860000,296.720000,39.660000,296.940000,39.450000,297.150000Z" fill="rgb(255,255,255)" stroke="none" stroke-width="1"/><path id="zas-b-2-path8" d="M41.620000,298.470000C41.620000,299.022285,42.067715,299.470000,42.620000,299.470000C43.172285,299.470000,43.620000,299.022285,43.620000,298.470000C43.620000,297.917715,43.172285,297.470000,42.620000,297.470000C42.067715,297.470000,41.620000,297.917715,41.620000,298.470000Z" fill="rgb(255,255,255)" stroke="none" stroke-width="1"/><path id="zas-b-2-path9" d="M45.270000,287.740000C46.245690,287.733554,47.220856,287.786988,48.190000,287.900000L48.190000,286.260000C47.357899,285.969505,46.481260,285.827348,45.600000,285.840000C45.450000,286.540000,45.350000,287.180000,45.270000,287.740000Z" fill="rgb(255,255,255)" stroke="none" stroke-width="1"/></g></g></g><g id="zas-b-2-lefttight_to" transform="translate(46.173126,178.478251)"><g id="zas-b-2-lefttight_tr" transform="rotate(-0.198165)"><g id="zas-b-2-lefttight_ts" transform="scale(1,1)"><path id="zas-b-2-lefttight" d="M60.100000,164.730000L61.230000,225.730000C61.230000,225.730000,49.710000,229.440000,38.100000,226.570000L35.620000,156.100000Z" transform="translate(-46.783420,-173.084729)" fill="rgb(5,7,5)" stroke="none" stroke-width="1"/></g></g></g><g id="zas-b-2-rightleg_to" style="offset-path:path('M84.332130,225.240000L73.817098,243.899948L84.332130,225.240000L79.046667,225.240000L68.541970,225.256075L68.541970,225.256075L67.824791,226.533056L67.824791,226.533056L72.518218,226.533056L28.880348,219.539824L24.151045,216.963468L20.067855,215.325038L-13.025646,212.092334C-12.893650,213.826719,-31.322633,214.328487,-32.936130,213.695030Q-34.851255,215.254398,-36.464752,214.620940Q-18.433393,209.908185,-20.046890,209.274728');offset-rotate:0deg"><g id="zas-b-2-rightleg_tr" transform="rotate(-15.177836)"><g id="zas-b-2-rightleg_ts" transform="scale(0.925843,0.994765)"><path id="zas-b-2-rightleg" d="M90.240000,213.430000C90.240000,217.620000,90.240000,221.430000,90.140000,224.430000L89.760000,287.890000L80.760000,287.890000L75,228.590000L72.750000,213.430000Z" transform="translate(-77.215855,-218.157813)" fill="rgb(255,175,130)" stroke="none" stroke-width="1"/></g></g></g><g id="zas-b-2-rightshoe_to" transform="translate(99.035131,288.794832)"><g id="zas-b-2-rightshoe_tr" transform="rotate(-30.250553)"><g id="zas-b-2-rightshoe" transform="translate(-41.632144,-294.692969)"><path id="zas-b-2-path10" d="M23.670000,309.480000L56.430000,309.480000C57.952497,309.491619,59.242264,308.360923,59.430000,306.850000C59.455093,306.637405,59.455093,306.422595,59.430000,306.210000L58.130000,289C57.071287,288.542311,55.973524,288.180853,54.850000,287.920000C53.707755,287.661855,52.785061,286.822697,52.420000,285.710000L52.360000,285.460000C51.610000,282.150000,46.830000,281.100000,45.950000,284.340000C45.830000,284.750000,45.730000,285.160000,45.650000,285.550000L45.590000,285.840000C45.450000,286.540000,45.350000,287.180000,45.270000,287.740000L45.270000,287.740000C45.164842,288.515590,45.111391,289.297315,45.110000,290.080000C44.670000,290.630000,44.250000,291.180000,43.850000,291.710000C43.640000,291.970000,43.440000,292.240000,43.240000,292.500000L42,294.160000L41.430000,294.880000C40.980000,295.450000,40.530000,295.980000,40.080000,296.490000C39.880000,296.720000,39.680000,296.940000,39.470000,297.150000C37.780000,298.930000,36.080000,300.150000,34.060000,300.420000C30.510000,300.910000,24.700000,301.300000,21.900000,306.520000C21.843144,306.625393,21.796273,306.735875,21.760000,306.850000C21.556964,307.461708,21.661165,308.133774,22.039902,308.655281C22.418638,309.176787,23.025488,309.483812,23.670000,309.480000Z" transform="matrix(1 0 0 1 0.24717644937820 0.43553946969229)" fill="rgb(38,93,146)" stroke="none" stroke-width="1"/><path id="zas-b-2-path11" d="M23.670000,309.470000L56.430000,309.470000C57.949131,309.482230,59.237620,308.356950,59.430000,306.850000L21.740000,306.850000C21.539781,307.463827,21.648206,308.136554,22.031140,308.656393C22.414075,309.176231,23.024411,309.479231,23.670000,309.470000Z" fill="rgb(26,74,117)" stroke="none" stroke-width="1"/><path id="zas-b-2-path12" d="M43.240000,292.530000C43.953781,293.409360,44.915371,294.053904,46,294.380000C46.270000,294.490000,46.560000,294.600000,46.870000,294.700000L47.150000,293.840000Q46.680000,293.690000,46.310000,293.540000C44.520000,292.810000,44.030000,292.100000,43.900000,291.740000C43.640000,292,43.440000,292.270000,43.240000,292.530000Z" fill="rgb(255,255,255)" stroke="none" stroke-width="1"/><path id="zas-b-2-path13" d="M46,294.270000C46,294.822285,46.447715,295.270000,47,295.270000C47.552285,295.270000,48,294.822285,48,294.270000C48,293.717715,47.552285,293.270000,47,293.270000C46.447715,293.270000,46,293.717715,46,294.270000Z" fill="rgb(255,255,255)" stroke="none" stroke-width="1"/><path id="zas-b-2-path14" d="M41.410000,294.880000C42.055478,295.494276,42.817002,295.973628,43.650000,296.290000C43.970000,296.420000,44.310000,296.550000,44.650000,296.680000L44.940000,295.820000C44.580000,295.700000,44.260000,295.580000,43.940000,295.470000C43.180965,295.193941,42.496342,294.745514,41.940000,294.160000Z" fill="rgb(255,255,255)" stroke="none" stroke-width="1"/><path id="zas-b-2-path15" d="M43.650000,296.250000C43.650000,296.802285,44.097715,297.250000,44.650000,297.250000C45.202285,297.250000,45.650000,296.802285,45.650000,296.250000C45.650000,295.697715,45.202285,295.250000,44.650000,295.250000C44.097715,295.250000,43.650000,295.697715,43.650000,296.250000Z" fill="rgb(255,255,255)" stroke="none" stroke-width="1"/><path id="zas-b-2-path16" d="M39.450000,297.150000C40.072449,297.744892,40.811275,298.204530,41.620000,298.500000C41.940000,298.640000,42.290000,298.770000,42.680000,298.900000L43,298C42.640000,297.880000,42.320000,297.760000,42,297.640000C41.283348,297.376827,40.626986,296.972127,40.070000,296.450000C39.860000,296.720000,39.660000,296.940000,39.450000,297.150000Z" fill="rgb(255,255,255)" stroke="none" stroke-width="1"/><path id="zas-b-2-path17" d="M41.620000,298.470000C41.620000,299.022285,42.067715,299.470000,42.620000,299.470000C43.172285,299.470000,43.620000,299.022285,43.620000,298.470000C43.620000,297.917715,43.172285,297.470000,42.620000,297.470000C42.067715,297.470000,41.620000,297.917715,41.620000,298.470000Z" fill="rgb(255,255,255)" stroke="none" stroke-width="1"/><path id="zas-b-2-path18" d="M45.270000,287.740000C46.245690,287.733554,47.220856,287.786988,48.190000,287.900000L48.190000,286.260000C47.357899,285.969505,46.481260,285.827348,45.600000,285.840000C45.450000,286.540000,45.350000,287.180000,45.270000,287.740000Z" fill="rgb(255,255,255)" stroke="none" stroke-width="1"/></g></g></g><g id="zas-b-2-pants_to" transform="translate(62.193487,171.357529)"><g id="zas-b-2-pants_ts" transform="scale(1,1)"><path id="zas-b-2-pants" d="M88.710000,158.740000C88.710000,158.740000,89.940000,180.740000,80.970000,183.960000C72,187.180000,36.360000,194.090000,35.620000,156.100000Z" transform="translate(-62.193487,-171.357529)" fill="rgb(44,44,44)" stroke="none" stroke-width="1"/></g></g><g id="zas-b-2-righttight_to" transform="translate(82.823555,171.170422)"><g id="zas-b-2-righttight_tr" transform="rotate(-3.855018)"><g id="zas-b-2-righttight_ts" transform="scale(1,1)"><path id="zas-b-2-righttight" d="M88.720000,164L94.070000,225.590000C94.070000,225.590000,81.690000,229.710000,69.330000,224.980000L68.180000,186.600000Z" transform="translate(-81.081210,-173.745872)" fill="rgb(44,44,44)" stroke="none" stroke-width="1"/></g></g></g><g id="zas-b-2-lefthand_to" transform="translate(-16.572305,148.037164)"><g id="zas-b-2-lefthand_tr" transform="rotate(14.579949)"><g id="zas-b-2-lefthand" transform="translate(-10.626554,-160.157815)"><path id="zas-b-2-path19" d="M14.870000,147.350000C12.987624,148.174850,11.189281,149.179511,9.500000,150.350000C7.160000,152.060000,4.390000,154.200000,2.970000,155.270000C1.260000,156.570000,3.250000,157.910000,5.710000,156.270000C8.170000,154.630000,8.710000,154.270000,8.710000,154.270000C8.710000,154.270000,1.110000,162.810000,0.120000,165.740000C-0.790000,168.410000,3.660000,163.880000,7.540000,160.330000C7.540000,160.330000,1.610000,169.920000,2.450000,171.640000C3.550000,173.900000,10.700000,162.270000,10.700000,162.270000C10.700000,162.270000,6.700000,171.630000,7.890000,171.950000C9.080000,172.270000,14.470000,163.230000,14.470000,163.230000C14.470000,163.230000,12.290000,169.900000,13.160000,169.830000C14.860000,169.700000,22.270000,156.730000,21.220000,149.980000C21.220000,150,16.500000,147,14.870000,147.350000Z" fill="rgb(255,175,130)" stroke="none" stroke-width="1"/><path id="zas-b-2-path20" d="M7.900000,157.930000C7.900000,157.930000,11.820000,161.630000,16.830000,161.370000C16.830000,161.370000,12.390000,163.850000,7.900000,157.930000Z" fill="rgb(248,137,104)" stroke="none" stroke-width="1"/><path id="zas-b-2-path21" d="M13.270000,156.870000C13.270000,156.870000,18.520000,153.370000,15.270000,148.870000C15.300000,148.830000,20.570000,152.770000,13.270000,156.870000Z" fill="rgb(248,137,104)" stroke="none" stroke-width="1"/></g></g></g><g id="zas-b-2-leftarm_to" transform="translate(31.184949,82.002120)"><g id="zas-b-2-leftarm_tr" transform="rotate(18.410567)"><path id="zas-b-2-leftarm" d="M48.080000,74.680000C48.080000,74.680000,44.080000,96.560000,38.960000,109.310000C33.840000,122.060000,21.290000,152.310000,21.290000,152.310000C19.820000,149.760000,17.170000,148.030000,12.890000,148.310000C12.890000,148.310000,21.330000,119.890000,24.890000,107.650000C26.490000,102.200000,32.060000,72.090000,35.530000,67.030000C35.550000,67,47.580000,72.800000,48.080000,74.680000Z" transform="translate(-35.246383,-83.061989)" fill="rgb(188,35,39)" stroke="none" stroke-width="1"/></g></g><g id="zas-b-2-torso_to" transform="translate(63.775002,112.841473)"><g id="zas-b-2-torso_ts" transform="scale(1,1)"><path id="zas-b-2-torso" d="M71.130000,58.730000L93.760000,69.860000L86,113.090000L90.680000,163.470000C90.680000,163.470000,52.590000,171.630000,33.790000,162.970000L35.550000,67L54.360000,59.610000Z" transform="translate(-63.775002,-112.841473)" fill="rgb(221,52,44)" stroke="none" stroke-width="1"/></g></g><g id="zas-b-2-righthand_to" transform="translate(143.564299,146.055246)"><g id="zas-b-2-righthand_tr" transform="rotate(-22.294295)"><path id="zas-b-2-righthand" d="M100.430000,153.300000C99.033292,154.881790,97.877522,156.660935,97,158.580000C95.920000,161.250000,94.890000,164.090000,94.250000,165.760000C93.480000,167.760000,95.510000,167.680000,96.780000,166.180000C97.803937,165.123579,98.516729,163.805259,98.840000,162.370000C99.163271,160.934741,96.840000,173.690000,97.580000,176.700000C98.220000,179.450000,99.580000,173.260000,101.040000,168.200000C101.040000,168.200000,101.040000,179.470000,102.670000,180.490000C104.800000,181.830000,104.750000,168.180000,104.750000,168.180000C104.750000,168.180000,106.280000,178.240000,107.460000,177.890000C108.640000,177.540000,108.460000,167.010000,108.460000,167.010000C108.460000,167.010000,110.120000,173.830000,110.820000,173.320000C112.200000,172.320000,111.670000,157.380000,107.230000,152.200000C107.220000,152.200000,101.640000,152.160000,100.430000,153.300000Z" transform="translate(-102.786804,-166.391197)" fill="rgb(255,175,130)" stroke="none" stroke-width="1"/></g></g><g id="zas-b-2-rightarm_to" transform="translate(91.337080,77.182415)"><g id="zas-b-2-rightarm_tr" transform="rotate(-30)"><path id="zas-b-2-rightarm" d="M93.760000,69.860000C93.760000,69.860000,104.920000,90.860000,107.410000,104.400000C109.900000,117.940000,108.750000,154.650000,108.750000,154.650000C105.722203,155.565725,102.480839,155.488633,99.500000,154.430000C96.519161,153.371367,98.500000,120.040000,96.190000,112.840000C93.880000,105.640000,82.750000,87.150000,82.750000,87.150000C82.750000,87.150000,80.310000,76.060000,93.760000,69.860000Z" transform="translate(-90.240000,-79.187388)" fill="rgb(188,35,39)" stroke="none" stroke-width="1"/></g></g><g id="zas-b-2-head_to" transform="translate(60.783361,58.730000)"><g id="zas-b-2-head_tr" transform="rotate(0)"><g id="zas-b-2-head" transform="translate(-63.055000,-58.350167)"><path id="zas-b-2-path22" d="M56.430000,49.530000L57.190000,59.730000L57.540000,64.410000C63.540000,68.650000,70.640000,62.770000,70.640000,62.770000L73.490000,46.470000C70.740000,44.690000,63.960000,47.200000,59.770000,48.470000C57.790000,49,56.430000,49.530000,56.430000,49.530000Z" fill="rgb(255,175,130)" stroke="none" stroke-width="1"/><path id="zas-b-2-path23" d="M56.430000,49.530000L57.190000,59.730000C64.070000,58.010000,69.680000,48.330000,69.680000,48.330000L59.770000,48.450000C57.790000,49,56.430000,49.530000,56.430000,49.530000Z" fill="rgb(248,137,104)" stroke="none" stroke-width="1"/><path id="zas-b-2-path24" d="M34.320000,22.300000C34.320000,22.660000,34.320000,23.040000,34.320000,23.420000L34.320000,23.420000C34.320000,24.650000,34.400000,25.930000,34.480000,27.240000C34.480000,27.360000,34.480000,27.480000,34.480000,27.610000C34.610000,29.690000,34.800000,31.850000,35.030000,34.010000L35.180000,35.410000C35.350000,36.910000,35.540000,38.410000,35.740000,39.870000C35.740000,40.170000,35.820000,40.460000,35.870000,40.750000L36.110000,42.490000C36.300000,43.740000,36.490000,44.960000,36.670000,46.140000C37.251468,49.701758,39.246060,52.877997,42.201709,54.948834C45.157358,57.019670,48.823782,57.809749,52.370000,57.140000C59.367879,55.963277,66.226950,54.073431,72.840000,51.500000L73.060000,51.020000C74.509533,47.732723,75.651087,44.318102,76.470000,40.820000C78.141349,34.012553,78.564862,26.958516,77.720000,20C75.490000,2.780000,39.050000,1.230000,34.790000,15.440000C34.790000,15.610000,34.730000,15.770000,34.710000,15.940000C34.419140,18.047066,34.288765,20.173183,34.320000,22.300000Z" fill="rgb(255,175,130)" stroke="none" stroke-width="1"/><path id="zas-b-2-path25" d="M59.070000,37.930000C59.070000,40.080000,61.480000,41.830000,64.450000,41.830000C67.420000,41.830000,69.820000,40.080000,69.820000,37.930000C69.820000,35.780000,67.420000,34,64.450000,34C61.480000,34,59.070000,35.770000,59.070000,37.930000Z" opacity="0.5" fill="rgb(248,137,104)" stroke="none" stroke-width="1"/><path id="zas-b-2-path26" d="M35.060000,34.060000L35.210000,35.460000C35.380000,36.960000,35.570000,38.460000,35.770000,39.920000C35.770000,40.220000,35.850000,40.510000,35.900000,40.800000C35.950000,41.090000,36,41.490000,36.050000,41.800000C38.910000,41.710000,41.190000,39.990000,41.190000,37.900000C41.190000,35.810000,38.780000,34,35.810000,34C35.558999,34.004446,35.308516,34.024485,35.060000,34.060000Z" opacity="0.5" fill="rgb(248,137,104)" stroke="none" stroke-width="1"/><path id="zas-b-2-path27" d="M34.320000,22.290000C34.320000,22.660000,34.320000,23.040000,34.320000,23.410000C36.650000,21.300000,36.060000,16,36.060000,16C35.613107,15.925221,35.156893,15.925221,34.710000,16C34.422660,18.083941,34.292293,20.186525,34.320000,22.290000Z" fill="rgb(50,50,76)" stroke="none" stroke-width="1"/><path id="zas-b-2-path28" d="M73.060000,51C74.507825,47.712063,75.649326,44.297603,76.470000,40.800000L72.820000,42.150000C72.820000,42.150000,71.710000,47.830000,73.060000,51Z" fill="rgb(50,50,76)" stroke="none" stroke-width="1"/><path id="zas-b-2-path29" d="M54.790000,31.890000C54.790000,33.380000,55.420000,34.600000,56.240000,34.610000C57.060000,34.620000,57.740000,33.410000,57.760000,31.920000C57.780000,30.430000,57.120000,29.210000,56.300000,29.200000C55.480000,29.190000,54.800000,30.390000,54.790000,31.890000Z" fill="rgb(50,50,76)" stroke="none" stroke-width="1"/><path id="zas-b-2-path30" d="M39.350000,31.890000C39.350000,33.380000,39.980000,34.600000,40.800000,34.610000C41.620000,34.620000,42.300000,33.410000,42.320000,31.920000C42.340000,30.430000,41.680000,29.210000,40.860000,29.200000C40.040000,29.190000,39.360000,30.390000,39.350000,31.890000Z" fill="rgb(50,50,76)" stroke="none" stroke-width="1"/><path id="zas-b-2-path31" d="M72.310000,29.560000C72.310000,29.560000,76.520000,24.560000,79.970000,27.560000C83.770000,30.830000,80.700000,41.700000,72.910000,41.360000Z" fill="rgb(255,175,130)" stroke="none" stroke-width="1"/><path id="zas-b-2-path32" d="M72.800000,39C73.127206,38.978078,73.392152,38.725748,73.430000,38.400000C74.140000,32.830000,77.520000,32.060000,77.550000,32.050000C77.789368,31.999983,77.983869,31.826064,78.060237,31.593756C78.136605,31.361449,78.083237,31.106047,77.920237,30.923756C77.757237,30.741466,77.509368,30.659983,77.270000,30.710000C77.090000,30.710000,72.900000,31.710000,72.070000,38.230000C72.047387,38.411685,72.097910,38.594909,72.210445,38.739329C72.322979,38.883748,72.488298,38.977521,72.670000,39Z" fill="rgb(248,137,104)" stroke="none" stroke-width="1"/><path id="zas-b-2-path33" d="M77.220000,35.510000C77.369278,35.502576,77.511053,35.442321,77.620000,35.340000C77.771878,35.223164,77.866463,35.046890,77.879843,34.855739C77.893224,34.664588,77.824120,34.476856,77.690000,34.340000C76.733245,33.360247,75.330874,32.957397,74,33.280000C73.629969,33.357320,73.392680,33.719969,73.470000,34.090000C73.547320,34.460031,73.909969,34.697320,74.280000,34.620000C75.123132,34.432636,76.003801,34.684793,76.620000,35.290000C76.769889,35.460136,76.995658,35.542918,77.220000,35.510000Z" fill="rgb(248,137,104)" stroke="none" stroke-width="1"/><path id="zas-b-2-path34" d="M46.660000,47.610000C50.385292,47.443172,53.885921,45.781185,56.370000,43C56.509563,42.844274,56.580753,42.639031,56.567592,42.430332C56.554431,42.221633,56.458021,42.026959,56.300000,41.890000C55.976136,41.602267,55.480962,41.629033,55.190000,41.950000C50,47.860000,41.920000,45.640000,41.840000,45.620000C41.420264,45.498497,40.981503,45.740264,40.860000,46.160000C40.738497,46.579736,40.980264,47.018497,41.400000,47.140000C43.118364,47.568415,44.892903,47.726976,46.660000,47.610000Z" fill="rgb(248,137,104)" stroke="none" stroke-width="1"/><path id="zas-b-2-path35" d="M48.940000,51.140000C51.177296,51.040005,53.274861,50.023771,54.740000,48.330000C54.943409,47.963421,54.845389,47.502985,54.510306,47.251043C54.175223,46.999101,53.705677,47.032795,53.410000,47.330000C51.718579,49.157699,49.168504,49.923487,46.750000,49.330000C46.527966,49.280138,46.295198,49.323626,46.106145,49.450292C45.917092,49.576957,45.788338,49.775689,45.750000,50C45.703091,50.221766,45.747800,50.453077,45.873970,50.641390C46.000139,50.829704,46.197060,50.959033,46.420000,51C47.251049,51.150098,48.097439,51.197120,48.940000,51.140000Z" fill="rgb(248,137,104)" stroke="none" stroke-width="1"/><path id="zas-b-2-path36" d="M47.630000,40.130000C47.856003,40.114346,48.064034,40.001206,48.200000,39.820000C48.331069,39.657013,48.390198,39.447721,48.363792,39.240245C48.337386,39.032768,48.227717,38.844959,48.060000,38.720000L46,37.090000L47.830000,36.640000C48.127884,36.555014,48.349932,36.305697,48.400000,36L49.260000,31C49.294687,30.793103,49.245658,30.580906,49.123723,30.410198C49.001789,30.239489,48.816963,30.124289,48.610000,30.090000C48.405395,30.052449,48.194301,30.099281,48.024772,30.219835C47.855243,30.340389,47.741703,30.524407,47.710000,30.730000L46.930000,35.230000L44,36C43.707293,36.074223,43.482504,36.308812,43.420831,36.604418C43.359158,36.900024,43.471391,37.204927,43.710000,37.390000L47.090000,40C47.249729,40.104062,47.440412,40.149967,47.630000,40.130000Z" fill="rgb(248,137,104)" stroke="none" stroke-width="1"/><path id="zas-b-2-path37" d="M78.160000,26.650000C78.160000,26.650000,83.770000,16.650000,82.590000,12.440000C81.890487,9.971609,79.727791,8.199954,77.170000,8C74.612209,7.800046,68.530000,-0.830000,55.530000,0.120000C44.750000,0.910000,34.320000,-1.460000,32.730000,1.700000C31.270000,4.600000,37.660000,6.620000,37.660000,6.620000C37.660000,6.620000,32.340000,6.230000,31.150000,7.620000C29.960000,9.010000,31.210000,12.250000,36.750000,11.900000C36.750000,11.900000,32.140000,12.150000,30.960000,14.520000C29.780000,16.890000,35.100000,17.770000,39.830000,16.780000C44.560000,15.790000,63.570000,15.890000,67.710000,18.780000C67.710000,18.780000,66.820000,24,69.380000,26.070000C69.380000,26.070000,67.380000,32.970000,69.290000,34.650000C71.200000,36.330000,72.420000,26.750000,78.160000,26.650000Z" fill="rgb(50,50,76)" stroke="none" stroke-width="1"/><path id="zas-b-2-path38" d="M53.620000,24.120000L53.620000,26.690000C53.620000,26.690000,58.330000,25.830000,61.520000,27.820000L61.890000,25.680000C61.890000,25.680000,59.200000,23,53.620000,24.120000Z" fill="rgb(50,50,76)" stroke="none" stroke-width="1"/><path id="zas-b-2-path39" d="M44.400000,24.120000L44.400000,26.690000C44.400000,26.690000,39.690000,25.830000,36.500000,27.820000L36.130000,25.680000C36.130000,25.680000,38.820000,23,44.400000,24.120000Z" fill="rgb(50,50,76)" stroke="none" stroke-width="1"/></g></g></g></g></g></g></svg>