<svg class="contact-icon contact-icon--github" width="121" height="118" viewBox="0 0 121 118" fill="none"
            xmlns="http://www.w3.org/2000/svg">
            <path fill-rule="evenodd" id="github-icon__main-path" clip-rule="evenodd"
              d="M60.388 0C27.041 0 0 27.035 0 60.388C0 87.07 17.303 109.705 41.297 117.691C44.314 118.251 45.422 116.381 45.422 114.786C45.422 113.346 45.366 108.589 45.34 103.543C28.54 107.196 24.995 96.418 24.995 96.418C22.248 89.438 18.29 87.582 18.29 87.582C12.81 83.834 18.703 83.912 18.703 83.912C24.766 84.337 27.96 90.135 27.96 90.135C33.346 99.365 42.087 96.697 45.533 95.155C46.075 91.252 47.64 88.587 49.367 87.079C35.954 85.554 21.853 80.375 21.853 57.236C21.853 50.643 24.213 45.256 28.076 41.026C27.448 39.506 25.381 33.364 28.66 25.046C28.66 25.046 33.73 23.423 45.27 31.236C50.088 29.897 55.255 29.224 60.388 29.201C65.518 29.224 70.688 29.895 75.515 31.234C87.041 23.421 92.105 25.044 92.105 25.044C95.392 33.361 93.325 39.504 92.698 41.024C96.57 45.254 98.913 50.641 98.913 57.234C98.913 80.428 84.786 85.534 71.339 87.03C73.506 88.904 75.436 92.58 75.436 98.213C75.436 106.293 75.366 112.796 75.366 114.785C75.366 116.392 76.454 118.275 79.514 117.682C103.494 109.688 120.777 87.06 120.777 60.388C120.776 27.037 93.738 0 60.388 0Z"
              fill="#EBE8E8" />
          </svg>