<svg width="146" height="50" viewBox="0 0 146 50" fill="none" xmlns="http://www.w3.org/2000/svg">
<g filter="url(#filter0_d)">
<path d="M46.9531 36V19.5938H50.1562L50.6719 21.6875C52.1094 20.2917 53.6302 19.5938 55.2344 19.5938V22.9375C53.6927 22.9375 52.3125 23.5781 51.0938 24.8594V36H46.9531ZM72.3438 19.5938V36H69.1094L68.6094 33.9062C66.724 35.3021 64.724 36 62.6094 36C59.2552 36 57.5781 34.0156 57.5781 30.0469V19.5938H61.7188V29.9375C61.7188 31.75 62.5104 32.6562 64.0938 32.6562C65.4375 32.6562 66.8073 32.1198 68.2031 31.0469V19.5938H72.3438ZM76.2656 35.2188V31.7812C78.0885 32.5104 80.1927 32.875 82.5781 32.875C84.3594 32.875 85.25 32.3021 85.25 31.1562C85.25 30.0625 84.651 29.5156 83.4531 29.5156H80.4844C77.151 29.5156 75.4844 27.875 75.4844 24.5938C75.4844 21.1562 77.9167 19.4375 82.7812 19.4375C84.8438 19.4375 86.7865 19.75 88.6094 20.375V23.8125C86.7865 23.0833 84.8073 22.7188 82.6719 22.7188C80.4323 22.7188 79.3125 23.2917 79.3125 24.4375C79.3125 25.5312 79.9635 26.0781 81.2656 26.0781H83.9219C87.5677 26.0781 89.3906 27.7188 89.3906 31C89.3906 34.4375 87.0677 36.1562 82.4219 36.1562C80.1406 36.1562 78.0885 35.8438 76.2656 35.2188ZM96.4375 13.6562V16.9375H92.2969V13.6562H96.4375ZM96.4375 19.5938V36H92.2969V19.5938H96.4375ZM99.5781 30.8906C99.5781 27.6302 101.953 26 106.703 26C107.818 26 108.932 26.1042 110.047 26.3125V25.0781C110.047 23.6094 108.99 22.875 106.875 22.875C105.083 22.875 103.094 23.1354 100.906 23.6562V20.375C103.094 19.8542 105.083 19.5938 106.875 19.5938C111.75 19.5938 114.188 21.3958 114.188 25V36H111.781L110.312 34.5312C108.885 35.5104 107.312 36 105.594 36C101.583 36 99.5781 34.2969 99.5781 30.8906ZM110.047 29.125C109.005 28.9167 107.891 28.8125 106.703 28.8125C104.714 28.8125 103.719 29.4896 103.719 30.8438C103.719 32.3021 104.552 33.0312 106.219 33.0312C107.594 33.0312 108.87 32.6042 110.047 31.75V29.125ZM118.109 36V13.6562H122.25V20.875C123.948 20.0208 125.734 19.5938 127.609 19.5938C131.797 19.5938 133.891 21.1719 133.891 24.3281C133.891 26.6198 132.432 28.4115 129.516 29.7031L134.609 36H129.547L125.266 30.1406V28.2188C128.255 27.5833 129.75 26.5417 129.75 25.0938C129.75 23.6146 128.76 22.875 126.781 22.875C125.396 22.875 123.885 23.3125 122.25 24.1875V36H118.109Z" fill="#2F2727"/>
</g>
<path d="M62.1504 47L63.6865 39.3193H66.8018C68.3701 39.3193 69.0164 40.005 68.7407 41.3765C68.4435 42.8696 67.1903 43.7809 64.981 44.1104L64.9434 43.2725C66.5654 43.0397 67.4767 42.422 67.6772 41.4194C67.8455 40.5672 67.4678 40.1411 66.5439 40.1411H64.5137L63.144 47H62.1504ZM70.1265 44.1587C69.8543 45.5158 70.2464 46.1943 71.3027 46.1943C72.359 46.1943 73.0233 45.5158 73.2954 44.1587C73.5604 42.8302 73.1647 42.166 72.1084 42.166C71.0521 42.166 70.3914 42.8302 70.1265 44.1587ZM69.1274 44.1802C69.5034 42.3003 70.5508 41.3604 72.2695 41.3604C73.9883 41.3604 74.6597 42.3003 74.2837 44.1802C73.9077 46.0565 72.8604 46.9946 71.1416 46.9946C69.43 46.9946 68.7586 46.0565 69.1274 44.1802ZM75.0625 47L76.1904 41.3604H77.0767L76.8242 43.1543C77.4616 41.9583 78.2171 41.3604 79.0908 41.3604L78.9136 42.2412C78.0614 42.2412 77.3112 42.8195 76.6631 43.9761L76.0562 47H75.0625ZM80.1865 40.4473H80.8096L80.8418 41.3604H82.3672L82.2061 42.166H80.8364L80.1865 45.4048C80.0827 45.9312 80.2581 46.1943 80.7129 46.1943H81.4004L81.2393 47H80.2939C79.3486 47 78.978 46.4933 79.1821 45.48L80.1865 40.4473ZM84.6284 41.3604H86.374L86.2129 42.166H84.4673L83.5864 46.5703C83.3573 47.709 82.9079 48.5648 82.2383 49.1377L81.5186 48.5737C82.0628 48.0903 82.4209 47.4225 82.5928 46.5703L83.6885 41.0864C83.9606 39.7222 84.8343 39.04 86.3096 39.04C86.7715 39.04 87.194 39.1117 87.5771 39.2549L87.416 40.0605C87.0544 39.9173 86.63 39.8457 86.1431 39.8457C85.3338 39.8457 84.8486 40.245 84.6875 41.0435L84.6284 41.3604ZM87.5181 44.1587C87.2459 45.5158 87.638 46.1943 88.6943 46.1943C89.7507 46.1943 90.4149 45.5158 90.687 44.1587C90.952 42.8302 90.5563 42.166 89.5 42.166C88.4437 42.166 87.783 42.8302 87.5181 44.1587ZM86.519 44.1802C86.895 42.3003 87.9424 41.3604 89.6611 41.3604C91.3799 41.3604 92.0513 42.3003 91.6753 44.1802C91.2993 46.0565 90.252 46.9946 88.5332 46.9946C86.8216 46.9946 86.1502 46.0565 86.519 44.1802ZM95.0376 39.3193L93.5015 47H92.5078L94.0439 39.3193H95.0376ZM97.4009 41.3604L96.2729 47H95.2793L96.4072 41.3604H97.4009ZM97.8091 39.3193L97.6211 40.2593H96.6274L96.8154 39.3193H97.8091ZM99.2915 44.1587C99.0194 45.5158 99.4115 46.1943 100.468 46.1943C101.524 46.1943 102.188 45.5158 102.46 44.1587C102.725 42.8302 102.33 42.166 101.273 42.166C100.217 42.166 99.5565 42.8302 99.2915 44.1587ZM98.2925 44.1802C98.6685 42.3003 99.7158 41.3604 101.435 41.3604C103.153 41.3604 103.825 42.3003 103.449 44.1802C103.073 46.0565 102.025 46.9946 100.307 46.9946C98.5951 46.9946 97.9237 46.0565 98.2925 44.1802ZM108.417 41.3604H109.411C108.891 42.166 108.533 43.0612 108.336 44.0459C108.05 45.4782 108.292 46.1943 109.062 46.1943C109.867 46.1943 110.413 45.4782 110.7 44.0459L111.237 41.3604H112.23L111.693 44.0459C111.407 45.4782 111.667 46.1943 112.472 46.1943C113.242 46.1943 113.77 45.4782 114.057 44.0459C114.254 43.0612 114.254 42.166 114.057 41.3604H115.05C115.247 42.166 115.247 43.0612 115.05 44.0459C114.656 46.0153 113.743 47 112.311 47C111.47 47 110.99 46.5363 110.872 45.6089C110.399 46.5363 109.742 47 108.9 47C107.468 47 106.949 46.0153 107.343 44.0459C107.54 43.0612 107.898 42.166 108.417 41.3604ZM119.369 41.3604C120.844 41.3604 121.474 41.8957 121.259 42.9663C121.052 44.0011 120.276 44.5186 118.934 44.5186H117.134C116.912 45.6357 117.331 46.1943 118.391 46.1943C119.211 46.1943 119.917 45.9616 120.507 45.4961L120.346 46.3018C119.755 46.7673 119.05 47 118.23 47C116.508 47 115.838 46.0386 116.221 44.1157C116.59 42.2788 117.639 41.3604 119.369 41.3604ZM117.301 43.6914H119.1C119.78 43.6914 120.171 43.4443 120.271 42.9502C120.375 42.4202 120.02 42.1553 119.208 42.1553C118.205 42.1553 117.569 42.6673 117.301 43.6914ZM122.94 46.0171C123.102 46.1209 123.415 46.1729 123.88 46.1729C125.134 46.1729 125.907 45.4406 126.201 43.9761C126.433 42.8052 126.179 42.2197 125.438 42.2197C124.672 42.2197 124.002 42.6745 123.429 43.584L122.94 46.0171ZM123.284 39.3193H124.278L123.601 42.7031C124.206 41.8079 124.931 41.3604 125.776 41.3604C127.058 41.3604 127.527 42.2269 127.184 43.96C126.775 45.9867 125.635 47 123.762 47C122.953 47 122.298 46.923 121.796 46.769L123.284 39.3193ZM127.807 46.7314L127.979 45.8721C128.598 46.0869 129.246 46.1943 129.923 46.1943C130.822 46.1943 131.325 45.9258 131.432 45.3887C131.532 44.8874 131.269 44.6367 130.643 44.6367H129.891C128.673 44.6367 128.175 44.0817 128.397 42.9717C128.612 41.8975 129.502 41.3604 131.067 41.3604C131.74 41.3604 132.39 41.4499 133.017 41.6289L132.845 42.4883C132.225 42.2734 131.579 42.166 130.906 42.166C129.968 42.166 129.445 42.4346 129.337 42.9717C129.237 43.473 129.482 43.7236 130.073 43.7236H130.825C132.114 43.7236 132.648 44.2786 132.426 45.3887C132.211 46.4629 131.323 47 129.762 47C129.085 47 128.433 46.9105 127.807 46.7314ZM135.622 41.3604L134.494 47H133.5L134.628 41.3604H135.622ZM136.03 39.3193L135.842 40.2593H134.848L135.036 39.3193H136.03ZM137.528 40.4473H138.151L138.184 41.3604H139.709L139.548 42.166H138.178L137.528 45.4048C137.424 45.9312 137.6 46.1943 138.055 46.1943H138.742L138.581 47H137.636C136.69 47 136.32 46.4933 136.524 45.48L137.528 40.4473ZM143.302 41.3604C144.778 41.3604 145.408 41.8957 145.193 42.9663C144.985 44.0011 144.21 44.5186 142.867 44.5186H141.068C140.846 45.6357 141.265 46.1943 142.325 46.1943C143.145 46.1943 143.85 45.9616 144.441 45.4961L144.28 46.3018C143.689 46.7673 142.984 47 142.164 47C140.441 47 139.772 46.0386 140.155 44.1157C140.524 42.2788 141.573 41.3604 143.302 41.3604ZM141.234 43.6914H143.034C143.714 43.6914 144.104 43.4443 144.205 42.9502C144.308 42.4202 143.954 42.1553 143.141 42.1553C142.139 42.1553 141.503 42.6673 141.234 43.6914Z" fill="#2F2727"/>
<g filter="url(#filter1_d)">
<path d="M26.2715 33.5383L17.1605 33.5383V33.5383C15.325 33.5383 14.5969 31.163 16.1172 30.1344L19.0112 28.1763C20.7637 26.9906 20.7222 24.3957 18.9326 23.2667L9.18198 17.1153C6.12421 15.1862 4.74029 11.4461 5.80592 7.99126L7.03702 4M45 16.8L7.03702 4M35.8888 36L36.1419 24.923L36.2591 19.796C36.3398 16.2644 34.0946 13.098 30.7353 12.0055L23.7406 9.73071L7.03702 4" stroke="#A58A8A" stroke-width="6" stroke-linejoin="round"/>
<path d="M26.2715 33.5383L17.1605 33.5383V33.5383C15.325 33.5383 14.5969 31.163 16.1172 30.1344L19.0112 28.1763C20.7637 26.9906 20.7222 24.3957 18.9326 23.2667L9.18198 17.1153C6.12421 15.1862 4.74029 11.4461 5.80592 7.99126L7.03702 4M45 16.8L7.03702 4M35.8888 36L36.1419 24.923L36.2591 19.796C36.3398 16.2644 34.0946 13.098 30.7353 12.0055L23.7406 9.73071L7.03702 4" stroke="url(#paint0_linear)" stroke-width="6" stroke-linejoin="round"/>
</g>
<defs>
<filter id="filter0_d" x="45.9531" y="13.6562" width="88.6562" height="23.5" filterUnits="userSpaceOnUse" color-interpolation-filters="sRGB">
<feFlood flood-opacity="0" result="BackgroundImageFix"/>
<feColorMatrix in="SourceAlpha" type="matrix" values="0 0 0 0 0 0 0 0 0 0 0 0 0 0 0 0 0 0 127 0"/>
<feOffset dx="-1" dy="1"/>
<feColorMatrix type="matrix" values="0 0 0 0 0 0 0 0 0 0 0 0 0 0 0 0 0 0 0.25 0"/>
<feBlend mode="normal" in2="BackgroundImageFix" result="effect1_dropShadow"/>
<feBlend mode="normal" in="SourceGraphic" in2="effect1_dropShadow" result="shape"/>
</filter>
<filter id="filter1_d" x="0.449524" y="0" width="45.509" height="36.5383" filterUnits="userSpaceOnUse" color-interpolation-filters="sRGB">
<feFlood flood-opacity="0" result="BackgroundImageFix"/>
<feColorMatrix in="SourceAlpha" type="matrix" values="0 0 0 0 0 0 0 0 0 0 0 0 0 0 0 0 0 0 127 0"/>
<feOffset dx="-2" dy="-1"/>
<feColorMatrix type="matrix" values="0 0 0 0 0 0 0 0 0 0 0 0 0 0 0 0 0 0 0.25 0"/>
<feBlend mode="normal" in2="BackgroundImageFix" result="effect1_dropShadow"/>
<feBlend mode="normal" in="SourceGraphic" in2="effect1_dropShadow" result="shape"/>
</filter>
<linearGradient id="paint0_linear" x1="11.0864" y1="22.8654" x2="49.0494" y2="22.8654" gradientUnits="userSpaceOnUse">
<stop stop-color="#D82020"/>
<stop offset="0.635417" stop-opacity="0.72"/>
</linearGradient>
</defs>
</svg>
