<svg width="455" height="455" viewBox="0 0 455 455" fill="none" xmlns="http://www.w3.org/2000/svg">
<g clip-path="url(#clip0)" filter="url(#filter0_d)">
<g style="mix-blend-mode:lighten">
<path d="M138.868 16.5584C139.233 16.5584 139.599 16.1929 139.599 15.8274C139.599 15.4619 139.233 15.0964 138.868 15.0964C138.502 15.0964 138.137 15.4619 138.137 15.8274C138.137 16.1929 138.502 16.5584 138.868 16.5584Z" fill="white" fill-opacity="0.06"/>
<path d="M183.092 17.6549C183.823 17.6549 184.554 16.9239 184.554 16.193C184.554 15.462 183.823 14.3655 183.092 14.3655C182.361 14.3655 181.63 15.0965 181.63 15.8275C181.63 16.5584 182.361 17.6549 183.092 17.6549Z" fill="white" fill-opacity="0.06"/>
<path d="M227.317 17.6549C228.327 17.6549 229.145 16.8368 229.145 15.8275C229.145 14.8182 228.327 14 227.317 14C226.308 14 225.49 14.8182 225.49 15.8275C225.49 16.8368 226.308 17.6549 227.317 17.6549Z" fill="white" fill-opacity="0.06"/>
<path d="M271.542 17.2894C272.349 17.2894 273.004 16.6349 273.004 15.8275C273.004 15.02 272.349 14.3655 271.542 14.3655C270.735 14.3655 270.08 15.02 270.08 15.8275C270.08 16.6349 270.735 17.2894 271.542 17.2894Z" fill="white" fill-opacity="0.06"/>
<path d="M315.767 16.924C316.132 16.924 316.498 16.5585 316.498 16.193C316.498 15.8275 316.132 15.462 315.767 15.462C315.402 15.462 315.036 15.8275 315.036 16.193C315.036 16.5585 315.402 16.924 315.767 16.924Z" fill="white" fill-opacity="0.06"/>
<path d="M50.4165 60.4161C50.7803 60.0524 50.4165 60.0524 50.4165 60.0524C50.0527 60.0524 50.0527 60.0524 50.4165 60.4161C50.0527 60.4161 50.0527 60.4161 50.4165 60.4161Z" fill="white" fill-opacity="0.06"/>
<path d="M94.6427 62.2453C95.6519 62.2453 96.4701 61.4271 96.4701 60.4178C96.4701 59.4085 95.6519 58.5903 94.6427 58.5903C93.6334 58.5903 92.8152 59.4085 92.8152 60.4178C92.8152 61.4271 93.6334 62.2453 94.6427 62.2453Z" fill="white" fill-opacity="0.06"/>
<path d="M138.868 64.0728C140.886 64.0728 142.522 62.4364 142.522 60.4178C142.522 58.3993 140.886 56.7629 138.868 56.7629C136.849 56.7629 135.213 58.3993 135.213 60.4178C135.213 62.4364 136.849 64.0728 138.868 64.0728Z" fill="white" fill-opacity="0.06"/>
<path d="M183.092 65.5348C186.016 65.5348 188.209 63.3418 188.209 60.4178C188.209 57.4939 186.016 55.3009 183.092 55.3009C180.168 55.3009 177.975 57.4939 177.975 60.4178C177.975 62.9763 180.168 65.5348 183.092 65.5348Z" fill="white" fill-opacity="0.06"/>
<path d="M227.317 65.9003C230.607 65.9003 232.8 63.3418 232.8 60.4178C232.8 57.4939 230.241 54.9354 227.317 54.9354C224.028 54.9354 221.835 57.4939 221.835 60.4178C221.835 63.3418 224.393 65.9003 227.317 65.9003Z" fill="white" fill-opacity="0.06"/>
<path d="M271.542 65.5348C274.466 65.5348 276.659 63.3418 276.659 60.4178C276.659 57.4939 274.466 55.3009 271.542 55.3009C268.618 55.3009 266.425 57.4939 266.425 60.4178C266.425 62.9763 268.618 65.5348 271.542 65.5348Z" fill="white" fill-opacity="0.06"/>
<path d="M315.767 64.4383C317.987 64.4383 319.787 62.6383 319.787 60.4178C319.787 58.1974 317.987 56.3974 315.767 56.3974C313.547 56.3974 311.747 58.1974 311.747 60.4178C311.747 62.6383 313.547 64.4383 315.767 64.4383Z" fill="white" fill-opacity="0.06"/>
<path d="M360.357 62.6108C361.568 62.6108 362.55 61.629 362.55 60.4178C362.55 59.2067 361.568 58.2249 360.357 58.2249C359.146 58.2249 358.164 59.2067 358.164 60.4178C358.164 61.629 359.146 62.6108 360.357 62.6108Z" fill="white" fill-opacity="0.06"/>
<path d="M404.582 60.7834C404.784 60.7834 404.948 60.6197 404.948 60.4179C404.948 60.216 404.784 60.0524 404.582 60.0524C404.38 60.0524 404.217 60.216 404.217 60.4179C404.217 60.6197 404.38 60.7834 404.582 60.7834Z" fill="white" fill-opacity="0.06"/>
<path d="M50.4178 106.47C51.4271 106.47 52.2453 105.652 52.2453 104.643C52.2453 103.633 51.4271 102.815 50.4178 102.815C49.4085 102.815 48.5903 103.633 48.5903 104.643C48.5903 105.652 49.4085 106.47 50.4178 106.47Z" fill="white" fill-opacity="0.06"/>
<path d="M94.6427 109.029C97.2011 109.029 99.3941 106.836 99.3941 104.277C99.3941 101.719 97.2011 99.5258 94.6427 99.5258C92.0842 99.5258 89.8912 101.719 89.8912 104.277C89.8912 107.201 92.0842 109.029 94.6427 109.029Z" fill="white" fill-opacity="0.06"/>
<path d="M138.868 111.587C142.888 111.587 145.812 108.298 145.812 104.643C145.812 100.622 142.522 97.6982 138.868 97.6982C134.847 97.6982 131.923 100.988 131.923 104.643C131.923 108.298 134.847 111.587 138.868 111.587Z" fill="white" fill-opacity="0.06"/>
<path d="M183.092 113.415C187.844 113.415 191.864 109.394 191.864 104.643C191.864 99.8912 187.844 95.8708 183.092 95.8708C178.341 95.8708 174.32 99.8912 174.32 104.643C174.32 109.394 178.341 113.415 183.092 113.415Z" fill="white" fill-opacity="0.06"/>
<path d="M227.317 113.78C232.434 113.78 236.82 109.76 236.82 104.277C236.82 99.1603 232.8 94.7744 227.317 94.7744C222.2 94.7744 217.814 98.7948 217.814 104.277C218.18 109.76 222.2 113.78 227.317 113.78Z" fill="white" fill-opacity="0.06"/>
<path d="M271.542 113.415C276.293 113.415 280.314 109.394 280.314 104.643C280.314 99.8912 276.293 95.8708 271.542 95.8708C266.791 95.8708 262.77 99.8912 262.77 104.643C262.77 109.394 266.791 113.415 271.542 113.415Z" fill="white" fill-opacity="0.06"/>
<path d="M315.767 111.587C319.787 111.587 323.077 108.298 323.077 104.277C323.077 100.257 319.787 96.9673 315.767 96.9673C311.747 96.9673 308.457 100.257 308.457 104.277C308.823 108.663 311.747 111.587 315.767 111.587Z" fill="white" fill-opacity="0.06"/>
<path d="M360.357 109.394C362.916 109.394 365.109 107.201 365.109 104.643C365.109 102.084 362.916 99.8912 360.357 99.8912C357.799 99.8912 355.606 102.084 355.606 104.643C355.24 107.201 357.433 109.394 360.357 109.394Z" fill="white" fill-opacity="0.06"/>
<path d="M404.582 106.836C405.793 106.836 406.775 105.854 406.775 104.643C406.775 103.432 405.793 102.45 404.582 102.45C403.371 102.45 402.389 103.432 402.389 104.643C402.389 105.854 403.371 106.836 404.582 106.836Z" fill="white" fill-opacity="0.06"/>
<path d="M5.82742 149.599C6.19292 149.599 6.55841 149.233 6.55841 148.868C6.55841 148.502 6.19292 148.137 5.82742 148.137C5.46193 148.137 5.09644 148.502 5.09644 148.868C5.09644 149.233 5.46193 149.599 5.82742 149.599Z" fill="white" fill-opacity="0.06"/>
<path d="M50.4178 152.522C52.6108 152.522 54.0728 150.695 54.0728 148.868C54.0728 146.675 52.2453 145.213 50.4178 145.213C48.2248 145.213 46.7629 147.04 46.7629 148.868C46.3974 151.06 48.2248 152.522 50.4178 152.522Z" fill="white" fill-opacity="0.06"/>
<path d="M94.6426 155.812C98.6631 155.812 101.587 152.522 101.587 148.868C101.587 144.847 98.2976 141.923 94.6426 141.923C90.6222 141.923 87.6982 145.213 87.6982 148.868C87.6982 152.522 90.6222 155.812 94.6426 155.812Z" fill="white" fill-opacity="0.06"/>
<path d="M138.868 158.736C144.35 158.736 148.736 154.35 148.736 148.868C148.736 143.385 144.35 138.999 138.868 138.999C133.385 138.999 128.999 143.385 128.999 148.868C128.999 154.35 133.385 158.736 138.868 158.736Z" fill="white" fill-opacity="0.06"/>
<path d="M183.092 160.929C189.671 160.929 195.154 155.446 195.154 148.868C195.154 142.289 189.671 136.806 183.092 136.806C176.513 136.806 171.031 142.289 171.031 148.868C171.031 155.446 176.513 160.929 183.092 160.929Z" fill="white" fill-opacity="0.06"/>
<path d="M227.317 161.66C234.627 161.66 240.475 155.812 240.475 148.502C240.475 141.192 234.627 135.344 227.317 135.344C220.007 135.344 214.159 141.192 214.159 148.502C214.525 155.812 220.007 161.66 227.317 161.66Z" fill="white" fill-opacity="0.06"/>
<path d="M271.542 161.294C278.405 161.294 283.969 155.731 283.969 148.868C283.969 142.004 278.405 136.441 271.542 136.441C264.679 136.441 259.115 142.004 259.115 148.868C259.115 155.731 264.679 161.294 271.542 161.294Z" fill="white" fill-opacity="0.06"/>
<path d="M315.767 158.736C321.249 158.736 326.001 154.35 326.001 148.502C326.001 142.654 321.615 138.268 315.767 138.268C309.919 138.268 305.533 142.654 305.533 148.502C305.533 154.35 310.285 158.736 315.767 158.736Z" fill="white" fill-opacity="0.06"/>
<path d="M360.357 156.177C364.378 156.177 367.667 152.888 367.667 148.868C367.667 144.847 364.378 141.558 360.357 141.558C356.337 141.558 353.047 144.847 353.047 148.868C353.047 152.888 356.337 156.177 360.357 156.177Z" fill="white" fill-opacity="0.06"/>
<path d="M404.582 152.888C406.803 152.888 408.603 151.088 408.603 148.867C408.603 146.647 406.803 144.847 404.582 144.847C402.362 144.847 400.562 146.647 400.562 148.867C400.562 151.088 402.362 152.888 404.582 152.888Z" fill="white" fill-opacity="0.06"/>
<path d="M448.807 149.964C449.173 149.964 449.904 149.599 449.904 148.868C449.904 148.502 449.538 147.771 448.807 147.771C448.442 147.771 447.711 148.137 447.711 148.868C447.711 149.233 448.076 149.964 448.807 149.964Z" fill="white" fill-opacity="0.06"/>
<path d="M5.82746 194.554C6.63489 194.554 7.28944 193.9 7.28944 193.092C7.28944 192.285 6.63489 191.63 5.82746 191.63C5.02003 191.63 4.36548 192.285 4.36548 193.092C4.36548 193.9 5.02003 194.554 5.82746 194.554Z" fill="white" fill-opacity="0.06"/>
<path d="M50.4178 198.209C53.3417 198.209 55.5347 196.016 55.5347 193.092C55.5347 190.168 53.3417 187.975 50.4178 187.975C47.4938 187.975 45.3008 190.168 45.3008 193.092C44.9354 196.016 47.4938 198.209 50.4178 198.209Z" fill="white" fill-opacity="0.06"/>
<path d="M94.6427 201.864C99.4872 201.864 103.415 197.937 103.415 193.092C103.415 188.248 99.4872 184.32 94.6427 184.32C89.7981 184.32 85.8708 188.248 85.8708 193.092C85.8708 197.937 89.7981 201.864 94.6427 201.864Z" fill="white" fill-opacity="0.06"/>
<path d="M138.868 205.154C145.529 205.154 150.929 199.754 150.929 193.092C150.929 186.431 145.529 181.031 138.868 181.031C132.206 181.031 126.806 186.431 126.806 193.092C126.806 199.754 132.206 205.154 138.868 205.154Z" fill="white" fill-opacity="0.06"/>
<path d="M183.092 208.078C191.499 208.078 198.078 201.499 198.078 193.092C198.078 184.686 191.499 178.107 183.092 178.107C174.686 178.107 168.107 184.686 168.107 193.092C168.107 201.499 174.686 208.078 183.092 208.078Z" fill="white" fill-opacity="0.06"/>
<path d="M227.317 209.54C236.401 209.54 243.765 202.176 243.765 193.092C243.765 184.009 236.401 176.645 227.317 176.645C218.234 176.645 210.87 184.009 210.87 193.092C210.87 202.176 218.234 209.54 227.317 209.54Z" fill="white" fill-opacity="0.06"/>
<path d="M271.542 208.443C280.02 208.443 286.893 201.57 286.893 193.092C286.893 184.614 280.02 177.742 271.542 177.742C263.064 177.742 256.191 184.614 256.191 193.092C256.191 201.57 263.064 208.443 271.542 208.443Z" fill="white" fill-opacity="0.06"/>
<path d="M315.767 205.519C322.63 205.519 328.194 199.955 328.194 193.092C328.194 186.229 322.63 180.666 315.767 180.666C308.904 180.666 303.34 186.229 303.34 193.092C303.34 199.955 308.904 205.519 315.767 205.519Z" fill="white" fill-opacity="0.06"/>
<path d="M360.357 201.864C365.474 201.864 369.495 197.844 369.495 192.727C369.495 187.61 365.474 183.59 360.357 183.59C355.24 183.59 351.22 187.976 351.22 193.092C351.22 198.209 355.24 201.864 360.357 201.864Z" fill="white" fill-opacity="0.06"/>
<path d="M404.582 198.575C407.61 198.575 410.065 196.12 410.065 193.092C410.065 190.065 407.61 187.61 404.582 187.61C401.554 187.61 399.1 190.065 399.1 193.092C399.1 196.12 401.554 198.575 404.582 198.575Z" fill="white" fill-opacity="0.06"/>
<path d="M448.807 194.92C449.816 194.92 450.635 194.102 450.635 193.092C450.635 192.083 449.816 191.265 448.807 191.265C447.798 191.265 446.98 192.083 446.98 193.092C446.98 194.102 447.798 194.92 448.807 194.92Z" fill="white" fill-opacity="0.06"/>
<path d="M5.82747 239.145C6.83676 239.145 7.65495 238.327 7.65495 237.317C7.65495 236.308 6.83676 235.49 5.82747 235.49C4.81819 235.49 4 236.308 4 237.317C4 238.327 4.81819 239.145 5.82747 239.145Z" fill="white" fill-opacity="0.06"/>
<path d="M50.4178 243.165C53.7073 243.165 55.9002 240.607 55.9002 237.683C55.9002 234.393 53.3418 232.2 50.4178 232.2C47.1284 232.2 44.9354 234.759 44.9354 237.683C44.5699 240.607 47.1284 243.165 50.4178 243.165Z" fill="white" fill-opacity="0.06"/>
<path d="M94.6427 246.82C99.7596 246.82 104.146 242.8 104.146 237.317C104.146 232.2 100.125 227.814 94.6427 227.814C89.5258 227.814 85.1398 231.835 85.1398 237.317C85.1398 242.434 89.5258 246.82 94.6427 246.82Z" fill="white" fill-opacity="0.06"/>
<path d="M138.868 250.475C146.177 250.475 152.025 244.627 152.025 237.317C152.025 230.007 146.177 224.159 138.868 224.159C131.558 224.159 125.71 230.007 125.71 237.317C125.71 244.627 131.558 250.475 138.868 250.475Z" fill="white" fill-opacity="0.06"/>
<path d="M183.092 253.764C192.176 253.764 199.54 246.401 199.54 237.317C199.54 228.234 192.176 220.87 183.092 220.87C174.009 220.87 166.645 228.234 166.645 237.317C166.645 246.401 174.009 253.764 183.092 253.764Z" fill="white" fill-opacity="0.06"/>
<path d="M227.317 256.323C237.814 256.323 246.323 247.814 246.323 237.317C246.323 226.821 237.814 218.312 227.317 218.312C216.821 218.312 208.312 226.821 208.312 237.317C208.312 247.814 216.821 256.323 227.317 256.323Z" fill="white" fill-opacity="0.06"/>
<path d="M271.542 254.13C280.828 254.13 288.355 246.603 288.355 237.317C288.355 228.032 280.828 220.505 271.542 220.505C262.257 220.505 254.729 228.032 254.729 237.317C254.729 246.603 262.257 254.13 271.542 254.13Z" fill="white" fill-opacity="0.06"/>
<path d="M315.767 250.475C323.077 250.475 328.925 244.627 328.925 237.317C328.925 230.007 323.077 224.159 315.767 224.159C308.457 224.159 302.609 230.007 302.609 237.317C302.609 244.627 308.457 250.475 315.767 250.475Z" fill="white" fill-opacity="0.06"/>
<path d="M360.357 246.82C365.474 246.82 369.86 242.434 369.86 237.317C369.86 232.2 365.474 227.814 360.357 227.814C355.24 227.814 350.854 232.2 350.854 237.317C350.489 242.8 354.875 246.82 360.357 246.82Z" fill="white" fill-opacity="0.06"/>
<path d="M404.582 243.165C407.872 243.165 410.43 240.607 410.43 237.317C410.43 234.028 407.872 231.469 404.582 231.469C401.293 231.469 398.734 234.028 398.734 237.317C398.734 240.607 401.293 243.165 404.582 243.165Z" fill="white" fill-opacity="0.06"/>
<path d="M448.807 239.51C450.018 239.51 451 238.528 451 237.317C451 236.106 450.018 235.124 448.807 235.124C447.596 235.124 446.614 236.106 446.614 237.317C446.614 238.528 447.596 239.51 448.807 239.51Z" fill="white" fill-opacity="0.06"/>
<path d="M5.82746 283.37C6.55845 283.37 7.28944 282.639 7.28944 281.908C7.28944 281.177 6.55845 280.446 5.82746 280.446C5.09647 280.446 4.36548 280.811 4.36548 281.542C4.36548 282.273 5.09647 283.37 5.82746 283.37Z" fill="white" fill-opacity="0.06"/>
<path d="M50.4178 286.659C53.3417 286.659 55.5347 284.466 55.5347 281.542C55.5347 278.618 53.3417 276.425 50.4178 276.425C47.4938 276.425 45.3008 278.618 45.3008 281.542C44.9354 284.466 47.4938 286.659 50.4178 286.659Z" fill="white" fill-opacity="0.06"/>
<path d="M94.6427 290.314C99.4872 290.314 103.415 286.387 103.415 281.542C103.415 276.697 99.4872 272.77 94.6427 272.77C89.7981 272.77 85.8708 276.697 85.8708 281.542C85.8708 286.387 89.7981 290.314 94.6427 290.314Z" fill="white" fill-opacity="0.06"/>
<path d="M138.868 293.969C145.731 293.969 151.294 288.405 151.294 281.542C151.294 274.679 145.731 269.115 138.868 269.115C132.004 269.115 126.441 274.679 126.441 281.542C126.441 288.405 132.004 293.969 138.868 293.969Z" fill="white" fill-opacity="0.06"/>
<path d="M183.092 296.893C191.499 296.893 198.443 289.948 198.443 281.542C198.443 273.136 191.499 266.191 183.092 266.191C174.686 266.191 167.742 273.136 167.742 281.542C167.742 289.948 174.686 296.893 183.092 296.893Z" fill="white" fill-opacity="0.06"/>
<path d="M227.317 298.355C236.603 298.355 244.13 290.828 244.13 281.542C244.13 272.257 236.603 264.729 227.317 264.729C218.032 264.729 210.505 272.257 210.505 281.542C210.505 290.828 218.032 298.355 227.317 298.355Z" fill="white" fill-opacity="0.06"/>
<path d="M271.542 297.258C279.948 297.258 286.893 290.314 286.893 281.908C286.893 273.501 279.948 266.557 271.542 266.557C263.136 266.557 256.191 273.136 256.191 281.542C256.191 290.314 263.136 297.258 271.542 297.258Z" fill="white" fill-opacity="0.06"/>
<path d="M315.767 293.969C322.63 293.969 328.194 288.405 328.194 281.542C328.194 274.679 322.63 269.115 315.767 269.115C308.904 269.115 303.34 274.679 303.34 281.542C303.34 288.405 308.904 293.969 315.767 293.969Z" fill="white" fill-opacity="0.06"/>
<path d="M360.357 290.68C365.474 290.68 369.495 286.659 369.495 281.542C369.495 276.425 365.474 272.405 360.357 272.405C355.24 272.405 351.22 276.425 351.22 281.542C351.22 286.659 355.24 290.68 360.357 290.68Z" fill="white" fill-opacity="0.06"/>
<path d="M404.582 287.025C407.506 287.025 410.065 284.466 410.065 281.542C410.065 278.618 407.506 276.06 404.582 276.06C401.658 276.06 399.1 278.618 399.1 281.542C399.1 284.466 401.293 287.025 404.582 287.025Z" fill="white" fill-opacity="0.06"/>
<path d="M448.807 283.37C449.816 283.37 450.635 282.551 450.635 281.542C450.635 280.533 449.816 279.715 448.807 279.715C447.798 279.715 446.98 280.533 446.98 281.542C446.98 282.551 447.798 283.37 448.807 283.37Z" fill="white" fill-opacity="0.06"/>
<path d="M5.82742 326.863C6.19292 326.863 6.55841 326.498 6.55841 326.132C6.55841 325.767 6.19292 325.401 5.82742 325.401C5.46193 325.401 5.09644 325.767 5.09644 326.132C5.09644 326.498 5.46193 326.863 5.82742 326.863Z" fill="white" fill-opacity="0.06"/>
<path d="M50.4178 329.787C52.6108 329.787 54.4383 327.96 54.4383 325.767C54.4383 323.574 52.6108 321.747 50.4178 321.747C48.2249 321.747 46.3974 323.574 46.3974 325.767C46.3974 327.96 48.2249 329.787 50.4178 329.787Z" fill="white" fill-opacity="0.06"/>
<path d="M94.6427 333.077C98.6631 333.077 101.953 329.787 101.953 325.767C101.953 321.747 98.6631 318.457 94.6427 318.457C90.6222 318.457 87.3328 321.747 87.3328 325.767C87.3328 329.787 90.6222 333.077 94.6427 333.077Z" fill="white" fill-opacity="0.06"/>
<path d="M138.868 336.001C144.52 336.001 149.101 331.419 149.101 325.767C149.101 320.115 144.52 315.533 138.868 315.533C133.216 315.533 128.634 320.115 128.634 325.767C128.634 331.419 133.216 336.001 138.868 336.001Z" fill="white" fill-opacity="0.06"/>
<path d="M183.092 338.194C190.037 338.194 195.519 332.711 195.519 325.767C195.519 318.823 190.037 313.706 183.092 313.706C176.148 313.706 170.666 319.188 170.666 326.132C170.666 333.077 176.148 338.194 183.092 338.194Z" fill="white" fill-opacity="0.06"/>
<path d="M227.317 339.29C234.627 339.29 240.475 333.442 240.475 326.132C240.475 318.823 234.627 312.975 227.317 312.975C220.007 312.975 214.159 318.823 214.159 326.132C214.159 333.442 220.007 339.29 227.317 339.29Z" fill="white" fill-opacity="0.06"/>
<path d="M271.542 338.194C278.405 338.194 283.969 332.63 283.969 325.767C283.969 318.904 278.405 313.34 271.542 313.34C264.679 313.34 259.115 318.904 259.115 325.767C259.115 332.63 264.679 338.194 271.542 338.194Z" fill="white" fill-opacity="0.06"/>
<path d="M315.767 336.001C321.419 336.001 326.001 331.419 326.001 325.767C326.001 320.115 321.419 315.533 315.767 315.533C310.115 315.533 305.533 320.115 305.533 325.767C305.533 331.419 310.115 336.001 315.767 336.001Z" fill="white" fill-opacity="0.06"/>
<path d="M360.357 333.442C364.378 333.442 367.667 330.153 367.667 326.132C367.667 322.112 364.378 318.823 360.357 318.823C356.337 318.823 353.047 322.112 353.047 326.132C353.047 330.153 355.971 333.442 360.357 333.442Z" fill="white" fill-opacity="0.06"/>
<path d="M404.582 330.153C407.004 330.153 408.968 328.189 408.968 325.767C408.968 323.345 407.004 321.381 404.582 321.381C402.16 321.381 400.196 323.345 400.196 325.767C400.196 328.189 402.16 330.153 404.582 330.153Z" fill="white" fill-opacity="0.06"/>
<path d="M448.807 326.863C449.173 326.863 449.904 326.498 449.904 325.767C449.904 325.036 449.538 324.67 448.807 324.67C448.442 324.67 447.711 325.036 447.711 325.767C447.711 326.498 448.076 326.863 448.807 326.863Z" fill="white" fill-opacity="0.06"/>
<path d="M50.4178 372.55C51.629 372.55 52.6108 371.568 52.6108 370.357C52.6108 369.146 51.629 368.164 50.4178 368.164C49.2067 368.164 48.2249 369.146 48.2249 370.357C48.2249 371.568 49.2067 372.55 50.4178 372.55Z" fill="white" fill-opacity="0.06"/>
<path d="M94.6427 375.109C97.2012 375.109 99.3941 372.916 99.3941 370.357C99.3941 367.799 97.2012 365.606 94.6427 365.606C92.0843 365.606 89.8913 367.799 89.8913 370.357C89.5258 372.916 91.7188 375.109 94.6427 375.109Z" fill="white" fill-opacity="0.06"/>
<path d="M138.868 377.302C142.888 377.302 146.177 374.012 146.177 369.992C146.177 365.971 142.888 362.682 138.868 362.682C134.847 362.682 131.558 365.971 131.558 369.992C131.558 374.378 134.847 377.302 138.868 377.302Z" fill="white" fill-opacity="0.06"/>
<path d="M183.092 379.129C188.209 379.129 192.23 375.109 192.23 369.992C192.23 364.875 188.209 361.22 183.092 361.22C177.975 361.22 173.955 365.24 173.955 370.357C173.955 375.474 177.975 379.129 183.092 379.129Z" fill="white" fill-opacity="0.06"/>
<path d="M227.317 379.86C232.434 379.86 236.82 375.474 236.82 370.357C236.82 365.24 232.434 360.854 227.317 360.854C222.2 360.854 217.814 365.24 217.814 370.357C217.814 375.474 222.2 379.86 227.317 379.86Z" fill="white" fill-opacity="0.06"/>
<path d="M271.542 379.129C276.659 379.129 280.68 375.109 280.68 369.992C280.68 364.875 276.659 360.854 271.542 360.854C266.425 360.854 262.405 364.875 262.405 369.992C262.405 375.109 266.791 379.129 271.542 379.129Z" fill="white" fill-opacity="0.06"/>
<path d="M315.767 377.667C319.787 377.667 323.077 374.378 323.077 370.357C323.077 366.337 319.787 363.047 315.767 363.047C311.747 363.047 308.457 366.337 308.457 370.357C308.457 374.378 311.747 377.667 315.767 377.667Z" fill="white" fill-opacity="0.06"/>
<path d="M360.357 375.474C363.281 375.474 365.474 373.281 365.474 370.357C365.474 367.433 363.281 365.24 360.357 365.24C357.433 365.24 355.24 367.433 355.24 370.357C354.875 372.916 357.433 375.474 360.357 375.474Z" fill="white" fill-opacity="0.06"/>
<path d="M404.582 372.55C405.793 372.55 406.775 371.568 406.775 370.357C406.775 369.146 405.793 368.164 404.582 368.164C403.371 368.164 402.389 369.146 402.389 370.357C402.389 371.568 403.371 372.55 404.582 372.55Z" fill="white" fill-opacity="0.06"/>
<path d="M50.4179 414.948C50.7834 414.948 50.7834 414.948 50.7834 414.582C50.7834 414.217 50.7834 414.217 50.4179 414.217C50.0524 414.217 50.0524 414.217 50.0524 414.582C50.0524 414.582 50.0524 414.948 50.4179 414.948Z" fill="white" fill-opacity="0.06"/>
<path d="M94.6427 416.775C95.8538 416.775 96.8356 415.793 96.8356 414.582C96.8356 413.371 95.8538 412.389 94.6427 412.389C93.4315 412.389 92.4497 413.371 92.4497 414.582C92.4497 415.793 93.4315 416.775 94.6427 416.775Z" fill="white" fill-opacity="0.06"/>
<path d="M138.867 418.603C141.088 418.603 142.888 416.803 142.888 414.582C142.888 412.362 141.088 410.562 138.867 410.562C136.647 410.562 134.847 412.362 134.847 414.582C134.847 416.803 136.647 418.603 138.867 418.603Z" fill="white" fill-opacity="0.06"/>
<path d="M183.092 419.699C186.016 419.699 188.575 417.141 188.575 414.217C188.575 411.293 186.016 408.734 183.092 408.734C180.168 408.734 177.61 411.293 177.61 414.217C177.61 417.506 180.168 419.699 183.092 419.699Z" fill="white" fill-opacity="0.06"/>
<path d="M227.317 420.43C230.607 420.43 233.165 417.872 233.165 414.582C233.165 411.293 230.607 408.734 227.317 408.734C224.028 408.734 221.469 411.293 221.469 414.582C221.469 417.872 224.028 420.43 227.317 420.43Z" fill="white" fill-opacity="0.06"/>
<path d="M271.542 420.065C274.466 420.065 277.025 417.506 277.025 414.582C277.025 411.658 274.466 409.1 271.542 409.1C268.618 409.1 266.06 411.658 266.06 414.582C266.06 417.506 268.618 420.065 271.542 420.065Z" fill="white" fill-opacity="0.06"/>
<path d="M315.767 418.968C318.189 418.968 320.153 417.004 320.153 414.582C320.153 412.16 318.189 410.196 315.767 410.196C313.345 410.196 311.381 412.16 311.381 414.582C311.381 417.004 313.345 418.968 315.767 418.968Z" fill="white" fill-opacity="0.06"/>
<path d="M360.357 416.775C361.568 416.775 362.55 415.793 362.55 414.582C362.55 413.371 361.568 412.389 360.357 412.389C359.146 412.389 358.164 413.371 358.164 414.582C358.164 415.793 359.146 416.775 360.357 416.775Z" fill="white" fill-opacity="0.06"/>
<path d="M404.582 414.948C404.948 414.948 404.948 414.948 404.948 414.582C404.948 414.217 404.948 414.217 404.582 414.217C404.217 414.217 404.217 414.217 404.217 414.582C404.217 414.582 404.217 414.948 404.582 414.948Z" fill="white" fill-opacity="0.06"/>
</g>
</g>
<defs>
<filter id="filter0_d" x="0" y="0" width="455" height="455" filterUnits="userSpaceOnUse" color-interpolation-filters="sRGB">
<feFlood flood-opacity="0" result="BackgroundImageFix"/>
<feColorMatrix in="SourceAlpha" type="matrix" values="0 0 0 0 0 0 0 0 0 0 0 0 0 0 0 0 0 0 127 0"/>
<feOffset dy="4"/>
<feGaussianBlur stdDeviation="2"/>
<feColorMatrix type="matrix" values="0 0 0 0 0 0 0 0 0 0 0 0 0 0 0 0 0 0 0.25 0"/>
<feBlend mode="normal" in2="BackgroundImageFix" result="effect1_dropShadow"/>
<feBlend mode="normal" in="SourceGraphic" in2="effect1_dropShadow" result="shape"/>
</filter>
<clipPath id="clip0">
<rect width="447" height="447" fill="white" transform="translate(4)"/>
</clipPath>
</defs>
</svg>
