<svg class="st0" xmlns="http://www.w3.org/2000/svg" width="152.9px"
	 height="115.3px" viewBox="0 0 152.9 115.3">
<path fill="#333333"  d="M145.5,59.5c0.2-1.3,0.3-2.7,0.3-4.1c0-17.3-14-31.4-31.4-31.4c-4,0-7.8,0.8-11.3,2.1C99.9,11.2,86.7,0,70.8,0
	C53.9,0,40,12.7,38,29C24.3,31,13.8,42.9,13.8,57.2c0,0.4,0,0.9,0,1.3C5.6,62.6,0,70.6,0,79.7C0,93.1,12,104,26.8,104
	c5.2,0,10-1.3,14.1-3.6c5.6,8.8,18.4,14.9,33.3,14.9c12.9,0,24.2-4.6,30.6-11.6c5.1,4.1,11.5,6.6,18.4,6.6
	c16.4,0,29.7-13.7,29.7-30.6C152.9,72,150.1,64.9,145.5,59.5z"/>
</svg>
