<svg width="124" height="110" viewBox="0 0 124 110" fill="none" xmlns="http://www.w3.org/2000/svg">
<path d="M49.8 21.7038C52.9 20.4038 54.2 16.7038 52.8 13.7038L47.9 3.40382C46.5 0.504821 43.1 -0.796179 40.1 0.504821C31.6 4.10482 24.3 8.80482 18.5 14.5048C11.4 21.2038 6.6 28.9038 4 37.4038C1.4 46.0048 0 57.7038 0 72.6038V103.304C0 106.604 2.7 109.304 6 109.304H45.3C48.6 109.304 51.3 106.604 51.3 103.304V64.0038C51.3 60.7028 48.6 58.0038 45.3 58.0038H26.5C26.7 47.9028 29.1 39.8038 33.5 33.7028C37.1 28.8048 42.5 24.8048 49.8 21.7038Z" fill="white" fill-opacity="0.03"/>
<path d="M120.4 21.7038C123.5 20.4038 124.799 16.7038 123.4 13.7038L118.5 3.50482C117.1 0.604823 113.7 -0.695177 110.7 0.604823C102.3 4.20482 95.099 8.90482 89.2 14.5048C82.099 21.3048 77.2 29.0048 74.599 37.5048C71.999 45.9038 70.7 57.6048 70.7 72.6048V103.305C70.7 106.605 73.4 109.305 76.7 109.305H116C119.3 109.305 122 106.605 122 103.305V64.0048C122 60.7038 119.3 58.0048 116 58.0048H97.1C97.3 47.9038 99.701 39.8048 104.1 33.7038C107.7 28.8048 113.1 24.8048 120.4 21.7038Z" fill="white" fill-opacity="0.03"/>
</svg>
