<svg width="44" height="36" viewBox="0 0 44 36" fill="none" xmlns="http://www.w3.org/2000/svg">
<path d="M24.2715 32.5383L15.1605 32.5383V32.5383C13.325 32.5383 12.5969 30.163 14.1172 29.1344L17.0112 27.1763C18.7637 25.9906 18.7222 23.3957 16.9326 22.2667L7.18198 16.1153C4.12421 14.1862 2.74029 10.4461 3.80592 6.99126L5.03702 3M43 15.8L5.03702 3M33.8888 35L34.1419 23.923L34.2591 18.796C34.3398 15.2644 32.0946 12.098 28.7353 11.0055L21.7406 8.73071L5.03702 3" stroke="#A58A8A" stroke-width="6" stroke-linejoin="round"/>
<path d="M24.2715 32.5383L15.1605 32.5383V32.5383C13.325 32.5383 12.5969 30.163 14.1172 29.1344L17.0112 27.1763C18.7637 25.9906 18.7222 23.3957 16.9326 22.2667L7.18198 16.1153C4.12421 14.1862 2.74029 10.4461 3.80592 6.99126L5.03702 3M43 15.8L5.03702 3M33.8888 35L34.1419 23.923L34.2591 18.796C34.3398 15.2644 32.0946 12.098 28.7353 11.0055L21.7406 8.73071L5.03702 3" stroke="url(#paint0_linear)" stroke-width="6" stroke-linejoin="round"/>
<defs>
<linearGradient id="paint0_linear" x1="9.08642" y1="21.8654" x2="47.0494" y2="21.8654" gradientUnits="userSpaceOnUse">
<stop stop-color="#D82020"/>
<stop offset="0.635417" stop-opacity="0.72"/>
</linearGradient>
</defs>
</svg>
