<svg width="24" height="17" viewBox="0 0 24 17" fill="none" xmlns="http://www.w3.org/2000/svg">
<g clip-path="url(#clip0)">
<path d="M21.9836 8.43902C22.4047 7.90078 22.631 7.23656 22.6258 6.55407C22.6207 5.87159 22.3844 5.21084 21.9553 4.67896C21.5262 4.14708 20.9294 3.77525 20.2617 3.62376C19.594 3.47228 18.8945 3.55001 18.2767 3.84437C18.2378 2.85755 17.8344 1.91986 17.1439 1.21155C16.4534 0.503227 15.5246 0.0742557 14.536 0.00708082C13.5475 -0.0600941 12.5689 0.239268 11.7883 0.847628C11.0078 1.45599 10.4804 2.33042 10.3075 3.30285C9.87644 3.15862 9.41842 3.11268 8.9672 3.16843C8.51598 3.22417 8.08308 3.38017 7.70043 3.62492C7.31778 3.86968 6.99514 4.19693 6.75632 4.58255C6.51751 4.96817 6.36861 5.40231 6.3206 5.85293C5.98519 5.72081 5.62773 5.65312 5.26707 5.65343C4.85582 5.65128 4.44885 5.73665 4.07335 5.90382C3.69786 6.071 3.36249 6.31613 3.08966 6.62284C2.81684 6.92955 2.61284 7.29077 2.49131 7.68235C2.36977 8.07393 2.3335 8.48686 2.38491 8.89354C1.90263 9.07771 1.46405 9.35983 1.09701 9.72198C0.72998 10.0841 0.442517 10.5184 0.25288 10.9972C0.0632437 11.476 -0.0244223 11.9889 -0.00455047 12.5032C0.0153214 13.0176 0.142297 13.5222 0.368312 13.9851C0.594328 14.4479 0.914443 14.8589 1.30833 15.1918C1.70222 15.5248 2.16127 15.7725 2.65633 15.9191C3.15139 16.0658 3.67164 16.1082 4.18405 16.0438C4.69645 15.9794 5.18981 15.8094 5.6328 15.5448C5.8976 15.8505 6.22384 16.0974 6.59043 16.2696C6.95701 16.4418 7.35578 16.5354 7.76092 16.5443C8.16607 16.5532 8.56859 16.4772 8.94243 16.3213C9.31628 16.1654 9.65313 15.9331 9.9312 15.6393C10.3096 16.0972 10.7925 16.458 11.3396 16.6915C11.8867 16.925 12.482 17.0244 13.0756 16.9814C13.6692 16.9383 14.2438 16.7541 14.7512 16.4441C15.2587 16.1341 15.6841 15.7074 15.992 15.1997C16.1711 15.234 16.353 15.2516 16.5353 15.2522C17.1019 15.2528 17.6561 15.0875 18.1292 14.7767C18.547 15.0696 19.0208 15.2738 19.5212 15.3765C20.0215 15.4792 20.5377 15.4783 21.0377 15.3738C21.5377 15.2693 22.0107 15.0635 22.4275 14.7691C22.8443 14.4747 23.196 14.0981 23.4606 13.6625C23.7252 13.227 23.8971 12.7419 23.9657 12.2374C24.0343 11.7328 23.998 11.2196 23.8593 10.7296C23.7205 10.2396 23.4821 9.78332 23.1589 9.38901C22.8357 8.99471 22.4346 8.67084 21.9806 8.43752L21.9836 8.43902Z" fill="#333333"/>
</g>
<defs>
<clipPath id="clip0">
<rect width="24" height="17" fill="white"/>
</clipPath>
</defs>
</svg>
