<svg width="24" height="16" viewBox="0 0 24 16" fill="none" xmlns="http://www.w3.org/2000/svg">
<path d="M23.9924 9.08136C23.893 7.45199 23.1713 5.92092 21.9737 4.79828C20.7761 3.67565 19.192 3.04538 17.5424 3.03514C16.9238 2.0293 16.0326 1.21518 14.9701 0.685171C13.9075 0.155159 12.7161 -0.0695171 11.5309 0.0366404C10.3458 0.142798 9.21454 0.575538 8.26544 1.28575C7.31634 1.99596 6.58744 2.9552 6.16148 4.0546C5.97307 4.0546 5.78466 4.0546 5.59455 4.0546C4.42649 4.12294 3.30484 4.53107 2.37031 5.22777C1.43577 5.92448 0.729976 6.87874 0.341463 7.97084C-0.0470502 9.06294 -0.100979 10.2442 0.186443 11.3666C0.473864 12.4889 1.08984 13.5022 1.95708 14.2794C2.5306 14.7933 3.19921 15.1926 3.92604 15.4551C5.94082 16.1655 15.4461 16.0278 17.8852 15.885C18.7377 15.8351 19.572 15.6196 20.3403 15.2506C21.1086 14.8817 21.7959 14.3666 22.363 13.7348C22.9301 13.103 23.3659 12.3669 23.6455 11.5684C23.925 10.77 24.0429 9.92489 23.9924 9.08136V9.08136Z" fill="#333333"/>
</svg>
